<svg width="1920" height="813" viewBox="0 0 1920 813" fill="none" xmlns="http://www.w3.org/2000/svg">
<rect width="1920" height="813" fill="white" fill-opacity="0.12"/>
<circle cx="1212.11" cy="93.1132" r="3.11321" fill="#DFDFDF"/>
<circle cx="1227.06" cy="93.1132" r="3.11321" fill="#DFDFDF"/>
<circle cx="1242" cy="93.1132" r="3.11321" fill="#DFDFDF"/>
<circle cx="1257.17" cy="93.1132" r="3.11321" fill="#DFDFDF"/>
<circle cx="1212.11" cy="108.057" r="3.11321" fill="#DFDFDF"/>
<circle cx="1227.06" cy="108.057" r="3.11321" fill="#DFDFDF"/>
<circle cx="1242" cy="108.057" r="3.11321" fill="#DFDFDF"/>
<circle cx="1257.17" cy="108.057" r="3.11321" fill="#DFDFDF"/>
<circle cx="1212.11" cy="123" r="3.11321" fill="#DFDFDF"/>
<circle cx="1227.06" cy="123" r="3.11321" fill="#DFDFDF"/>
<circle cx="1242" cy="123" r="3.11321" fill="#DFDFDF"/>
<circle cx="1257.17" cy="123" r="3.11321" fill="#DFDFDF"/>
<circle cx="1212.11" cy="137.943" r="3.11321" fill="#DFDFDF"/>
<circle cx="1227.06" cy="137.943" r="3.11321" fill="#DFDFDF"/>
<circle cx="1242" cy="137.943" r="3.11321" fill="#DFDFDF"/>
<circle cx="1257.17" cy="137.943" r="3.11321" fill="#DFDFDF"/>
<circle cx="1212.11" cy="152.887" r="3.11321" fill="#DFDFDF"/>
<circle cx="1227.06" cy="152.887" r="3.11321" fill="#DFDFDF"/>
<circle cx="1242" cy="152.887" r="3.11321" fill="#DFDFDF"/>
<circle cx="1257.17" cy="152.887" r="3.11321" fill="#DFDFDF"/>
<mask id="mask0_20_1635" style="mask-type:alpha" maskUnits="userSpaceOnUse" x="0" y="0" width="1920" height="813">
<rect width="1920" height="813" fill="white"/>
</mask>
<g mask="url(#mask0_20_1635)">
<circle cx="1367.5" cy="406.5" r="287.5" fill="#FFCFA3"/>
<circle cx="1108.5" cy="120.5" r="44.5" fill="#FFCFA3" fill-opacity="0.24"/>
<path d="M991.7 712.84C991.7 713.94 991.18 714.64 990.14 714.64C989.08 714.64 988.54 713.92 988.52 712.74H985.72C985.72 715.56 987.56 717.14 990.18 717.14C992.76 717.14 994.52 715.6 994.52 712.84V703.04H991.7V712.84ZM997.066 711.42C997.066 714.88 999.306 717.18 1002.11 717.18C1003.87 717.18 1005.13 716.34 1005.79 715.38V717H1008.61V705.92H1005.79V707.5C1005.13 706.58 1003.91 705.74 1002.13 705.74C999.306 705.74 997.066 707.96 997.066 711.42ZM1005.79 711.46C1005.79 713.56 1004.39 714.72 1002.85 714.72C1001.35 714.72 999.926 713.52 999.926 711.42C999.926 709.32 1001.35 708.2 1002.85 708.2C1004.39 708.2 1005.79 709.36 1005.79 711.46ZM1026.84 717H1029.64V710.5C1029.64 707.44 1027.76 705.76 1025.1 705.76C1023.48 705.76 1022.02 706.62 1021.3 707.88C1020.54 706.5 1019.12 705.76 1017.4 705.76C1016.02 705.76 1014.84 706.34 1014.14 707.26V705.92H1011.34V717H1014.14V710.88C1014.14 709.12 1015.12 708.2 1016.64 708.2C1018.12 708.2 1019.1 709.12 1019.1 710.88V717H1021.9V710.88C1021.9 709.12 1022.88 708.2 1024.38 708.2C1025.86 708.2 1026.84 709.12 1026.84 710.88V717ZM1037.06 708.04C1038.5 708.04 1039.66 708.96 1039.7 710.42H1034.44C1034.66 708.9 1035.72 708.04 1037.06 708.04ZM1042.32 713.52H1039.3C1038.94 714.26 1038.28 714.86 1037.08 714.86C1035.68 714.86 1034.56 713.94 1034.42 712.3H1042.52C1042.58 711.94 1042.6 711.58 1042.6 711.22C1042.6 707.92 1040.34 705.74 1037.14 705.74C1033.86 705.74 1031.58 707.96 1031.58 711.46C1031.58 714.94 1033.92 717.18 1037.14 717.18C1039.88 717.18 1041.72 715.56 1042.32 713.52ZM1053.24 713.84C1053.16 709.78 1047.02 711.04 1047.02 709.02C1047.02 708.38 1047.56 707.96 1048.6 707.96C1049.7 707.96 1050.38 708.54 1050.46 709.4H1053.14C1052.98 707.2 1051.36 705.74 1048.68 705.74C1045.94 705.74 1044.3 707.22 1044.3 709.06C1044.3 713.12 1050.56 711.86 1050.56 713.84C1050.56 714.48 1049.96 714.98 1048.86 714.98C1047.74 714.98 1046.96 714.34 1046.86 713.5H1044.04C1044.16 715.56 1046.1 717.18 1048.88 717.18C1051.58 717.18 1053.24 715.74 1053.24 713.84ZM1069.79 717H1072.75L1067.73 703.02H1064.47L1059.45 717H1062.39L1063.31 714.34H1068.87L1069.79 717ZM1068.11 712.1H1064.07L1066.09 706.26L1068.11 712.1ZM1082.38 717H1085.18V710.5C1085.18 707.44 1083.34 705.76 1080.76 705.76C1079.34 705.76 1078.14 706.36 1077.42 707.3V705.92H1074.62V717H1077.42V710.88C1077.42 709.1 1078.4 708.14 1079.92 708.14C1081.4 708.14 1082.38 709.1 1082.38 710.88V717ZM1087.12 711.42C1087.12 714.88 1089.36 717.18 1092.18 717.18C1093.92 717.18 1095.16 716.38 1095.82 715.36V717H1098.66V702.2H1095.82V707.46C1095.06 706.42 1093.66 705.74 1092.2 705.74C1089.36 705.74 1087.12 707.96 1087.12 711.42ZM1095.84 711.46C1095.84 713.56 1094.44 714.72 1092.9 714.72C1091.4 714.72 1089.98 713.52 1089.98 711.42C1089.98 709.32 1091.4 708.2 1092.9 708.2C1094.44 708.2 1095.84 709.36 1095.84 711.46ZM1106.16 708.04C1107.6 708.04 1108.76 708.96 1108.8 710.42H1103.54C1103.76 708.9 1104.82 708.04 1106.16 708.04ZM1111.42 713.52H1108.4C1108.04 714.26 1107.38 714.86 1106.18 714.86C1104.78 714.86 1103.66 713.94 1103.52 712.3H1111.62C1111.68 711.94 1111.7 711.58 1111.7 711.22C1111.7 707.92 1109.44 705.74 1106.24 705.74C1102.96 705.74 1100.68 707.96 1100.68 711.46C1100.68 714.94 1103.02 717.18 1106.24 717.18C1108.98 717.18 1110.82 715.56 1111.42 713.52ZM1116.54 711.48C1116.54 709.34 1117.54 708.7 1119.2 708.7H1119.94V705.76C1118.4 705.76 1117.24 706.5 1116.54 707.64V705.92H1113.74V717H1116.54V711.48ZM1130.43 713.84C1130.35 709.78 1124.21 711.04 1124.21 709.02C1124.21 708.38 1124.75 707.96 1125.79 707.96C1126.89 707.96 1127.57 708.54 1127.65 709.4H1130.33C1130.17 707.2 1128.55 705.74 1125.87 705.74C1123.13 705.74 1121.49 707.22 1121.49 709.06C1121.49 713.12 1127.75 711.86 1127.75 713.84C1127.75 714.48 1127.15 714.98 1126.05 714.98C1124.93 714.98 1124.15 714.34 1124.05 713.5H1121.23C1121.35 715.56 1123.29 717.18 1126.07 717.18C1128.77 717.18 1130.43 715.74 1130.43 713.84ZM1143.43 711.46C1143.43 707.96 1140.93 705.74 1137.73 705.74C1134.53 705.74 1132.03 707.96 1132.03 711.46C1132.03 714.94 1134.45 717.18 1137.65 717.18C1140.87 717.18 1143.43 714.94 1143.43 711.46ZM1134.87 711.46C1134.87 709.24 1136.21 708.18 1137.69 708.18C1139.17 708.18 1140.55 709.24 1140.55 711.46C1140.55 713.66 1139.13 714.74 1137.65 714.74C1136.15 714.74 1134.87 713.66 1134.87 711.46ZM1153.24 717H1156.04V710.5C1156.04 707.44 1154.2 705.76 1151.62 705.76C1150.2 705.76 1149 706.36 1148.28 707.3V705.92H1145.48V717H1148.28V710.88C1148.28 709.1 1149.26 708.14 1150.78 708.14C1152.26 708.14 1153.24 709.1 1153.24 710.88V717Z" fill="#363848"/>
<path d="M1051.18 735.434H1053.6C1054.73 735.434 1055.56 735.604 1056.06 735.943C1056.57 736.283 1056.83 736.82 1056.83 737.555C1056.83 738.062 1056.68 738.482 1056.4 738.814C1056.12 739.143 1055.71 739.355 1055.16 739.453V739.512C1056.46 739.734 1057.11 740.418 1057.11 741.562C1057.11 742.328 1056.85 742.926 1056.33 743.355C1055.82 743.785 1055.1 744 1054.17 744H1051.18V735.434ZM1052.17 739.102H1053.81C1054.52 739.102 1055.02 738.992 1055.33 738.773C1055.64 738.551 1055.79 738.178 1055.79 737.654C1055.79 737.174 1055.62 736.828 1055.28 736.617C1054.94 736.402 1054.39 736.295 1053.64 736.295H1052.17V739.102ZM1052.17 739.945V743.15H1053.96C1054.65 743.15 1055.17 743.018 1055.52 742.752C1055.87 742.482 1056.05 742.062 1056.05 741.492C1056.05 740.961 1055.87 740.57 1055.51 740.32C1055.15 740.07 1054.61 739.945 1053.88 739.945H1052.17ZM1059.73 737.578V741.744C1059.73 742.268 1059.85 742.658 1060.08 742.916C1060.32 743.174 1060.7 743.303 1061.2 743.303C1061.88 743.303 1062.37 743.119 1062.67 742.752C1062.99 742.385 1063.14 741.785 1063.14 740.953V737.578H1064.12V744H1063.31L1063.17 743.139H1063.12C1062.92 743.455 1062.64 743.697 1062.29 743.865C1061.94 744.033 1061.53 744.117 1061.08 744.117C1060.3 744.117 1059.71 743.932 1059.32 743.561C1058.94 743.189 1058.74 742.596 1058.74 741.779V737.578H1059.73ZM1070.33 742.248C1070.33 742.846 1070.1 743.307 1069.66 743.631C1069.21 743.955 1068.59 744.117 1067.78 744.117C1066.93 744.117 1066.27 743.982 1065.79 743.713V742.811C1066.1 742.967 1066.43 743.09 1066.78 743.18C1067.14 743.27 1067.48 743.314 1067.81 743.314C1068.31 743.314 1068.71 743.234 1068.98 743.074C1069.25 742.91 1069.39 742.662 1069.39 742.33C1069.39 742.08 1069.28 741.867 1069.06 741.691C1068.85 741.512 1068.42 741.301 1067.79 741.059C1067.2 740.836 1066.77 740.643 1066.52 740.479C1066.27 740.311 1066.08 740.121 1065.96 739.91C1065.83 739.699 1065.77 739.447 1065.77 739.154C1065.77 738.631 1065.99 738.219 1066.41 737.918C1066.84 737.613 1067.42 737.461 1068.16 737.461C1068.86 737.461 1069.53 737.602 1070.19 737.883L1069.85 738.674C1069.2 738.408 1068.62 738.275 1068.09 738.275C1067.63 738.275 1067.29 738.348 1067.05 738.492C1066.82 738.637 1066.7 738.836 1066.7 739.09C1066.7 739.262 1066.74 739.408 1066.83 739.529C1066.92 739.65 1067.06 739.766 1067.26 739.875C1067.45 739.984 1067.83 740.143 1068.38 740.35C1069.14 740.627 1069.66 740.906 1069.92 741.188C1070.19 741.469 1070.33 741.822 1070.33 742.248ZM1076.06 742.248C1076.06 742.846 1075.83 743.307 1075.39 743.631C1074.94 743.955 1074.32 744.117 1073.51 744.117C1072.66 744.117 1072 743.982 1071.52 743.713V742.811C1071.83 742.967 1072.16 743.09 1072.51 743.18C1072.87 743.27 1073.21 743.314 1073.54 743.314C1074.04 743.314 1074.44 743.234 1074.71 743.074C1074.98 742.91 1075.12 742.662 1075.12 742.33C1075.12 742.08 1075.01 741.867 1074.79 741.691C1074.58 741.512 1074.15 741.301 1073.53 741.059C1072.93 740.836 1072.5 740.643 1072.25 740.479C1072 740.311 1071.81 740.121 1071.69 739.91C1071.56 739.699 1071.5 739.447 1071.5 739.154C1071.5 738.631 1071.72 738.219 1072.14 737.918C1072.57 737.613 1073.15 737.461 1073.89 737.461C1074.59 737.461 1075.26 737.602 1075.92 737.883L1075.58 738.674C1074.93 738.408 1074.35 738.275 1073.82 738.275C1073.36 738.275 1073.02 738.348 1072.78 738.492C1072.55 738.637 1072.43 738.836 1072.43 739.09C1072.43 739.262 1072.47 739.408 1072.56 739.529C1072.65 739.65 1072.79 739.766 1072.99 739.875C1073.18 739.984 1073.56 740.143 1074.11 740.35C1074.87 740.627 1075.39 740.906 1075.65 741.188C1075.92 741.469 1076.06 741.822 1076.06 742.248ZM1078.62 744H1077.64V737.578H1078.62V744ZM1077.56 735.838C1077.56 735.615 1077.62 735.453 1077.73 735.352C1077.84 735.246 1077.97 735.193 1078.14 735.193C1078.29 735.193 1078.43 735.246 1078.54 735.352C1078.65 735.457 1078.71 735.619 1078.71 735.838C1078.71 736.057 1078.65 736.221 1078.54 736.33C1078.43 736.436 1078.29 736.488 1078.14 736.488C1077.97 736.488 1077.84 736.436 1077.73 736.33C1077.62 736.221 1077.56 736.057 1077.56 735.838ZM1085.07 744V739.846C1085.07 739.322 1084.96 738.932 1084.72 738.674C1084.48 738.416 1084.11 738.287 1083.6 738.287C1082.93 738.287 1082.43 738.469 1082.12 738.832C1081.81 739.195 1081.65 739.795 1081.65 740.631V744H1080.68V737.578H1081.47L1081.63 738.457H1081.68C1081.88 738.141 1082.15 737.896 1082.51 737.725C1082.87 737.549 1083.27 737.461 1083.71 737.461C1084.49 737.461 1085.07 737.648 1085.46 738.023C1085.85 738.395 1086.05 738.99 1086.05 739.811V744H1085.07ZM1090.76 744.117C1089.81 744.117 1089.06 743.828 1088.51 743.25C1087.97 742.672 1087.69 741.869 1087.69 740.842C1087.69 739.807 1087.95 738.984 1088.46 738.375C1088.97 737.766 1089.65 737.461 1090.51 737.461C1091.32 737.461 1091.95 737.727 1092.42 738.258C1092.89 738.785 1093.12 739.482 1093.12 740.35V740.965H1088.7C1088.72 741.719 1088.91 742.291 1089.27 742.682C1089.63 743.072 1090.14 743.268 1090.8 743.268C1091.49 743.268 1092.17 743.123 1092.85 742.834V743.701C1092.51 743.85 1092.18 743.955 1091.87 744.018C1091.57 744.084 1091.2 744.117 1090.76 744.117ZM1090.5 738.275C1089.98 738.275 1089.57 738.443 1089.26 738.779C1088.96 739.115 1088.78 739.58 1088.72 740.174H1092.08C1092.08 739.561 1091.95 739.092 1091.67 738.768C1091.4 738.439 1091.01 738.275 1090.5 738.275ZM1098.93 742.248C1098.93 742.846 1098.71 743.307 1098.26 743.631C1097.82 743.955 1097.19 744.117 1096.39 744.117C1095.54 744.117 1094.87 743.982 1094.4 743.713V742.811C1094.71 742.967 1095.04 743.09 1095.39 743.18C1095.74 743.27 1096.08 743.314 1096.41 743.314C1096.92 743.314 1097.31 743.234 1097.58 743.074C1097.86 742.91 1097.99 742.662 1097.99 742.33C1097.99 742.08 1097.88 741.867 1097.67 741.691C1097.45 741.512 1097.03 741.301 1096.4 741.059C1095.8 740.836 1095.38 740.643 1095.12 740.479C1094.87 740.311 1094.69 740.121 1094.56 739.91C1094.44 739.699 1094.38 739.447 1094.38 739.154C1094.38 738.631 1094.59 738.219 1095.02 737.918C1095.44 737.613 1096.03 737.461 1096.77 737.461C1097.46 737.461 1098.14 737.602 1098.8 737.883L1098.45 738.674C1097.81 738.408 1097.22 738.275 1096.7 738.275C1096.24 738.275 1095.89 738.348 1095.66 738.492C1095.42 738.637 1095.3 738.836 1095.3 739.09C1095.3 739.262 1095.35 739.408 1095.43 739.529C1095.52 739.65 1095.67 739.766 1095.86 739.875C1096.06 739.984 1096.43 740.143 1096.99 740.35C1097.75 740.627 1098.26 740.906 1098.53 741.188C1098.8 741.469 1098.93 741.822 1098.93 742.248ZM1104.66 742.248C1104.66 742.846 1104.44 743.307 1103.99 743.631C1103.55 743.955 1102.92 744.117 1102.12 744.117C1101.27 744.117 1100.6 743.982 1100.13 743.713V742.811C1100.44 742.967 1100.77 743.09 1101.12 743.18C1101.47 743.27 1101.81 743.314 1102.14 743.314C1102.65 743.314 1103.04 743.234 1103.31 743.074C1103.59 742.91 1103.72 742.662 1103.72 742.33C1103.72 742.08 1103.62 741.867 1103.4 741.691C1103.18 741.512 1102.76 741.301 1102.13 741.059C1101.53 740.836 1101.11 740.643 1100.85 740.479C1100.6 740.311 1100.42 740.121 1100.29 739.91C1100.17 739.699 1100.11 739.447 1100.11 739.154C1100.11 738.631 1100.32 738.219 1100.75 737.918C1101.17 737.613 1101.76 737.461 1102.5 737.461C1103.19 737.461 1103.87 737.602 1104.53 737.883L1104.18 738.674C1103.54 738.408 1102.95 738.275 1102.43 738.275C1101.97 738.275 1101.62 738.348 1101.39 738.492C1101.15 738.637 1101.04 738.836 1101.04 739.09C1101.04 739.262 1101.08 739.408 1101.16 739.529C1101.25 739.65 1101.4 739.766 1101.59 739.875C1101.79 739.984 1102.16 740.143 1102.72 740.35C1103.48 740.627 1103.99 740.906 1104.26 741.188C1104.53 741.469 1104.66 741.822 1104.66 742.248ZM1114.9 744L1113.83 741.275H1110.4L1109.34 744H1108.34L1111.72 735.398H1112.56L1115.93 744H1114.9ZM1113.52 740.379L1112.53 737.725C1112.4 737.389 1112.26 736.977 1112.13 736.488C1112.04 736.863 1111.92 737.275 1111.76 737.725L1110.75 740.379H1113.52ZM1121.36 744V739.846C1121.36 739.322 1121.24 738.932 1121 738.674C1120.76 738.416 1120.39 738.287 1119.88 738.287C1119.21 738.287 1118.71 738.469 1118.4 738.832C1118.09 739.195 1117.93 739.795 1117.93 740.631V744H1116.96V737.578H1117.75L1117.91 738.457H1117.96C1118.16 738.141 1118.44 737.896 1118.79 737.725C1119.15 737.549 1119.55 737.461 1120 737.461C1120.77 737.461 1121.35 737.648 1121.74 738.023C1122.13 738.395 1122.33 738.99 1122.33 739.811V744H1121.36ZM1128.28 744L1128.09 743.086H1128.04C1127.72 743.488 1127.4 743.762 1127.08 743.906C1126.76 744.047 1126.37 744.117 1125.89 744.117C1125.25 744.117 1124.75 743.953 1124.39 743.625C1124.03 743.297 1123.85 742.83 1123.85 742.225C1123.85 740.928 1124.89 740.248 1126.96 740.186L1128.05 740.15V739.752C1128.05 739.248 1127.94 738.877 1127.72 738.639C1127.51 738.396 1127.16 738.275 1126.69 738.275C1126.15 738.275 1125.55 738.439 1124.87 738.768L1124.57 738.023C1124.89 737.852 1125.23 737.717 1125.61 737.619C1125.99 737.521 1126.37 737.473 1126.75 737.473C1127.51 737.473 1128.08 737.643 1128.45 737.982C1128.82 738.322 1129 738.867 1129 739.617V744H1128.28ZM1126.08 743.314C1126.69 743.314 1127.16 743.148 1127.51 742.816C1127.86 742.484 1128.03 742.02 1128.03 741.422V740.842L1127.06 740.883C1126.28 740.91 1125.72 741.031 1125.38 741.246C1125.04 741.457 1124.87 741.787 1124.87 742.236C1124.87 742.588 1124.98 742.855 1125.19 743.039C1125.4 743.223 1125.7 743.314 1126.08 743.314ZM1131.98 744H1131.01V734.883H1131.98V744ZM1133.03 737.578H1134.07L1135.48 741.24C1135.79 742.076 1135.98 742.68 1136.05 743.051H1136.1C1136.15 742.852 1136.25 742.512 1136.41 742.031C1136.58 741.547 1137.11 740.062 1138.01 737.578H1139.05L1136.29 744.891C1136.02 745.613 1135.7 746.125 1135.33 746.426C1134.97 746.73 1134.52 746.883 1133.99 746.883C1133.69 746.883 1133.4 746.85 1133.11 746.783V746.004C1133.32 746.051 1133.56 746.074 1133.83 746.074C1134.5 746.074 1134.97 745.699 1135.26 744.949L1135.62 744.035L1133.03 737.578ZM1142.17 743.314C1142.34 743.314 1142.51 743.303 1142.67 743.279C1142.83 743.252 1142.95 743.225 1143.05 743.197V743.941C1142.94 743.992 1142.79 744.033 1142.58 744.064C1142.38 744.1 1142.19 744.117 1142.03 744.117C1140.79 744.117 1140.16 743.463 1140.16 742.154V738.334H1139.24V737.865L1140.16 737.461L1140.57 736.09H1141.14V737.578H1143V738.334H1141.14V742.113C1141.14 742.5 1141.23 742.797 1141.41 743.004C1141.6 743.211 1141.85 743.314 1142.17 743.314ZM1145.31 744H1144.34V737.578H1145.31V744ZM1144.25 735.838C1144.25 735.615 1144.31 735.453 1144.42 735.352C1144.53 735.246 1144.66 735.193 1144.83 735.193C1144.98 735.193 1145.12 735.246 1145.23 735.352C1145.35 735.457 1145.4 735.619 1145.4 735.838C1145.4 736.057 1145.35 736.221 1145.23 736.33C1145.12 736.436 1144.98 736.488 1144.83 736.488C1144.66 736.488 1144.53 736.436 1144.42 736.33C1144.31 736.221 1144.25 736.057 1144.25 735.838ZM1149.94 744.117C1149.01 744.117 1148.29 743.832 1147.78 743.262C1147.27 742.688 1147.01 741.877 1147.01 740.83C1147.01 739.756 1147.27 738.926 1147.79 738.34C1148.31 737.754 1149.04 737.461 1150 737.461C1150.31 737.461 1150.62 737.494 1150.93 737.561C1151.24 737.627 1151.48 737.705 1151.65 737.795L1151.36 738.621C1151.14 738.535 1150.91 738.465 1150.65 738.41C1150.4 738.352 1150.17 738.322 1149.98 738.322C1148.67 738.322 1148.02 739.154 1148.02 740.818C1148.02 741.607 1148.18 742.213 1148.5 742.635C1148.82 743.057 1149.29 743.268 1149.91 743.268C1150.45 743.268 1151 743.152 1151.56 742.922V743.783C1151.13 744.006 1150.59 744.117 1149.94 744.117ZM1157.23 742.248C1157.23 742.846 1157.01 743.307 1156.56 743.631C1156.12 743.955 1155.49 744.117 1154.69 744.117C1153.84 744.117 1153.17 743.982 1152.7 743.713V742.811C1153.01 742.967 1153.34 743.09 1153.69 743.18C1154.04 743.27 1154.38 743.314 1154.71 743.314C1155.22 743.314 1155.61 743.234 1155.88 743.074C1156.16 742.91 1156.29 742.662 1156.29 742.33C1156.29 742.08 1156.19 741.867 1155.97 741.691C1155.75 741.512 1155.33 741.301 1154.7 741.059C1154.1 740.836 1153.68 740.643 1153.42 740.479C1153.17 740.311 1152.99 740.121 1152.86 739.91C1152.74 739.699 1152.68 739.447 1152.68 739.154C1152.68 738.631 1152.89 738.219 1153.32 737.918C1153.74 737.613 1154.33 737.461 1155.07 737.461C1155.76 737.461 1156.44 737.602 1157.1 737.883L1156.75 738.674C1156.11 738.408 1155.52 738.275 1155 738.275C1154.54 738.275 1154.19 738.348 1153.96 738.492C1153.72 738.637 1153.61 738.836 1153.61 739.09C1153.61 739.262 1153.65 739.408 1153.73 739.529C1153.82 739.65 1153.97 739.766 1154.16 739.875C1154.36 739.984 1154.73 740.143 1155.29 740.35C1156.05 740.627 1156.56 740.906 1156.83 741.188C1157.1 741.469 1157.23 741.822 1157.23 742.248Z" fill="#363848"/>
<path d="M1548 197L1561.74 184.736C1564.66 182.133 1569.15 182.424 1571.7 185.383L1576.37 190.783C1579.18 194.044 1584.25 194.01 1587.02 190.711L1590.88 186.125C1593.6 182.882 1598.56 182.784 1601.41 185.916L1605.96 190.914C1608.87 194.105 1613.94 193.933 1616.62 190.554L1625 180" stroke="#FE8D4D" stroke-width="5"/>
<path d="M1548 219L1561.74 206.736C1564.66 204.133 1569.15 204.424 1571.7 207.383L1576.37 212.783C1579.18 216.044 1584.25 216.01 1587.02 212.711L1590.88 208.125C1593.6 204.882 1598.56 204.784 1601.41 207.916L1605.96 212.914C1608.87 216.105 1613.94 215.933 1616.62 212.554L1625 202" stroke="#FE8D4D" stroke-width="5"/>
<g filter="url(#filter0_d_20_1635)">
<rect x="1566" y="333" width="172" height="169" rx="20" fill="white"/>
</g>
<path d="M1715 417.5C1715 452.018 1687.02 480 1652.5 480C1617.98 480 1590 452.018 1590 417.5C1590 382.982 1617.98 355 1652.5 355C1687.02 355 1715 382.982 1715 417.5ZM1617.6 417.5C1617.6 436.773 1633.23 452.397 1652.5 452.397C1671.77 452.397 1687.4 436.773 1687.4 417.5C1687.4 398.227 1671.77 382.603 1652.5 382.603C1633.23 382.603 1617.6 398.227 1617.6 417.5Z" fill="#E9E9E9"/>
<path d="M1652.5 355C1662.78 355 1672.9 357.535 1681.96 362.38C1691.03 367.225 1698.76 374.231 1704.47 382.777C1710.18 391.323 1713.69 401.145 1714.7 411.374C1715.71 421.603 1714.18 431.922 1710.24 441.418C1706.31 450.914 1700.09 459.293 1692.15 465.813C1684.2 472.334 1674.77 476.794 1664.69 478.799C1654.61 480.804 1644.19 480.292 1634.36 477.309C1624.52 474.325 1615.57 468.962 1608.31 461.694L1627.82 442.176C1631.88 446.234 1636.88 449.228 1642.37 450.894C1647.86 452.56 1653.68 452.846 1659.31 451.726C1664.94 450.607 1670.2 448.116 1674.64 444.476C1679.07 440.835 1682.54 436.156 1684.74 430.854C1686.94 425.552 1687.79 419.791 1687.23 414.08C1686.67 408.368 1684.7 402.884 1681.52 398.112C1678.33 393.341 1674.01 389.429 1668.95 386.724C1663.89 384.019 1658.24 382.603 1652.5 382.603V355Z" fill="url(#paint0_linear_20_1635)"/>
<g filter="url(#filter1_d_20_1635)">
<circle cx="1652.5" cy="417.5" r="35.5" fill="white"/>
</g>
<path d="M1638.15 423H1640.67V420.444H1642.25V418.248H1640.67V410.04H1637.73L1631.85 418.464V420.444H1638.15V423ZM1634.62 418.248L1638.31 412.74V418.248H1634.62ZM1646.79 421.65C1646.79 420.822 1646.14 420.174 1645.26 420.174C1644.34 420.174 1643.69 420.822 1643.69 421.65C1643.69 422.478 1644.34 423.126 1645.26 423.126C1646.14 423.126 1646.79 422.478 1646.79 421.65ZM1649.21 409.842V417.546H1651.63C1651.9 416.736 1652.56 416.16 1653.61 416.16C1655.03 416.16 1655.77 416.97 1655.77 418.446C1655.77 419.832 1655.1 420.876 1653.62 420.876C1652.4 420.876 1651.66 420.21 1651.45 419.292H1649C1649.21 421.434 1650.83 423 1653.66 423C1656.65 423 1658.2 421.092 1658.2 418.41C1658.2 416.376 1657.15 414.072 1654.09 414.072C1652.99 414.072 1652 414.54 1651.52 415.134V412.056H1657.35V409.842H1649.21ZM1659.83 413.1C1659.83 414.99 1661.05 416.034 1662.69 416.034C1664.33 416.034 1665.55 414.99 1665.55 413.1C1665.55 411.228 1664.33 410.184 1662.69 410.184C1661.05 410.184 1659.83 411.228 1659.83 413.1ZM1662.67 411.696C1663.3 411.696 1663.7 412.11 1663.7 413.1C1663.7 414.09 1663.3 414.522 1662.67 414.522C1662.06 414.522 1661.68 414.09 1661.68 413.1C1661.68 412.11 1662.06 411.696 1662.67 411.696ZM1661.86 423H1664.31L1671.38 410.4H1668.92L1661.86 423ZM1667.73 420.282C1667.73 422.19 1668.95 423.216 1670.59 423.216C1672.21 423.216 1673.42 422.19 1673.42 420.282C1673.42 418.392 1672.21 417.366 1670.59 417.366C1668.95 417.366 1667.73 418.392 1667.73 420.282ZM1670.57 418.878C1671.18 418.878 1671.58 419.292 1671.58 420.282C1671.58 421.29 1671.18 421.704 1670.57 421.704C1669.94 421.704 1669.55 421.29 1669.55 420.282C1669.55 419.292 1669.94 418.878 1670.57 418.878Z" fill="#363848"/>
<g filter="url(#filter2_d_20_1635)">
<path d="M1022.36 304.457C1010.01 304.457 1000 294.447 1000 282.099V217.359C1000 205.01 1010.01 195 1022.36 195L1085.49 195C1097.84 195 1107.85 205.01 1107.85 217.359L1107.85 304.457H1022.36Z" fill="white"/>
<path d="M1095.76 292.326L1083.67 304.416L1107.85 316V304.416L1095.76 292.326Z" fill="white"/>
</g>
<path d="M1051.62 233.963C1060.6 233.963 1067.9 241.26 1067.9 250.239C1067.9 259.218 1060.6 266.515 1051.62 266.515C1042.64 266.515 1035.35 259.218 1035.35 250.239C1035.35 241.26 1042.64 233.963 1051.62 233.963Z" fill="#FFAA00"/>
<path d="M1054.34 260.185H1048.91C1046.42 260.185 1044.39 258.157 1044.39 255.664H1048.01C1048.01 256.162 1048.41 256.568 1048.91 256.568H1054.34C1054.83 256.568 1055.24 256.162 1055.24 255.664V252.951C1055.24 252.453 1054.83 252.047 1054.34 252.047H1048.91C1046.42 252.047 1044.39 250.019 1044.39 247.526V244.814C1044.39 242.321 1046.42 240.292 1048.91 240.292H1054.34C1056.83 240.292 1058.86 242.321 1058.86 244.814H1055.24C1055.24 244.315 1054.83 243.909 1054.34 243.909H1048.91C1048.41 243.909 1048.01 244.315 1048.01 244.814V247.526C1048.01 248.024 1048.41 248.43 1048.91 248.43H1054.34C1056.83 248.43 1058.86 250.459 1058.86 252.951V255.664C1058.86 258.157 1056.83 260.185 1054.34 260.185Z" fill="#FEC430"/>
<path d="M1075.96 248.44C1076.02 249.027 1076.04 249.633 1076.04 250.239C1076.04 251.785 1075.89 253.295 1075.61 254.76C1075.2 256.993 1074.48 259.118 1073.5 261.089C1072.33 263.44 1070.79 265.574 1068.97 267.419C1067.6 268.793 1066.07 270.014 1064.42 271.036C1060.7 273.332 1056.32 274.653 1051.62 274.653C1038.14 274.653 1027.21 263.721 1027.21 250.239C1027.21 236.757 1038.14 225.825 1051.62 225.825C1056.32 225.825 1060.7 227.145 1064.42 229.442C1067.13 231.115 1069.5 233.312 1071.36 235.88C1072.74 237.77 1073.86 239.859 1074.64 242.11C1075.36 244.108 1075.81 246.233 1075.96 248.44ZM1073.32 250.239C1073.32 238.276 1063.59 228.538 1051.62 228.538C1039.66 228.538 1029.92 238.276 1029.92 250.239C1029.92 262.202 1039.66 271.94 1051.62 271.94C1063.59 271.94 1073.32 262.202 1073.32 250.239Z" fill="#FF9E00"/>
<path d="M1051.62 228.538C1063.59 228.538 1073.32 238.276 1073.32 250.239C1073.32 262.202 1063.59 271.94 1051.62 271.94C1039.66 271.94 1029.92 262.202 1029.92 250.239C1029.92 238.276 1039.66 228.538 1051.62 228.538ZM1067.9 250.239C1067.9 241.26 1060.6 233.963 1051.62 233.963C1042.64 233.963 1035.35 241.26 1035.35 250.239C1035.35 259.218 1042.64 266.515 1051.62 266.515C1060.6 266.515 1067.9 259.218 1067.9 250.239Z" fill="#FEC430"/>
<path d="M1051.62 233.963C1047.88 233.963 1044.45 235.242 1041.7 237.367L1035.36 249.949C1035.36 250.047 1035.35 250.142 1035.35 250.239C1035.35 254.879 1037.31 259.059 1040.43 262.027L1045.91 251.143L1049.07 244.871L1050.91 241.197L1052.73 237.59L1054.43 234.222C1053.51 234.063 1052.58 233.963 1051.62 233.963Z" fill="#FED97A"/>
<path d="M1059.19 235.839L1057.07 240.046L1055.58 243.006L1053.3 247.527L1051.48 251.144L1049.03 256.016L1046.99 260.064L1044.56 264.884C1046.06 265.61 1047.69 266.111 1049.4 266.346L1052.54 260.122L1054.19 256.837L1063.24 238.859C1062.06 237.653 1060.69 236.632 1059.19 235.839Z" fill="#FED97A"/>
<path d="M1048.91 248.43C1048.41 248.43 1048.01 248.024 1048.01 247.526V246.975L1046 250.958C1046.79 251.628 1047.8 252.047 1048.91 252.047H1051.03L1052.85 248.43H1048.91Z" fill="#FEC430"/>
<path d="M1055.24 255.664C1055.24 256.162 1054.83 256.568 1054.34 256.568H1054.32L1052.5 260.185H1054.34C1056.83 260.185 1058.86 258.157 1058.86 255.664V252.952C1058.86 251.783 1058.4 250.726 1057.67 249.923L1055.24 254.747V255.664Z" fill="#FEC430"/>
<path d="M1054.34 243.909C1054.59 243.909 1054.82 244.017 1054.98 244.187L1056.62 240.934C1055.95 240.537 1055.17 240.292 1054.34 240.292H1051.37L1049.55 243.909H1054.34Z" fill="#FEC430"/>
<path d="M1048.01 255.664H1044.39C1044.39 257.52 1045.51 259.115 1047.12 259.81L1048.76 256.538C1048.34 256.466 1048.01 256.111 1048.01 255.664Z" fill="#FEC430"/>
<path d="M1035.36 249.949L1031.34 257.938C1032.7 261.519 1034.99 264.65 1037.9 267.037L1040.43 262.026C1037.31 259.059 1035.35 254.878 1035.35 250.239C1035.35 250.141 1035.36 250.046 1035.36 249.949Z" fill="#FED97A"/>
<path d="M1054.43 234.221L1056.95 229.202C1055.25 228.77 1053.46 228.538 1051.62 228.538C1049.58 228.538 1047.6 228.828 1045.73 229.359L1041.7 237.367C1044.45 235.241 1047.88 233.963 1051.62 233.963C1052.58 233.963 1053.51 234.062 1054.43 234.221Z" fill="#FED97A"/>
<path d="M1056.95 229.202L1058.2 226.726C1056.11 226.143 1053.9 225.825 1051.62 225.825C1050.15 225.825 1048.71 225.963 1047.31 226.212L1045.73 229.359C1047.6 228.828 1049.58 228.538 1051.62 228.538C1053.46 228.538 1055.25 228.77 1056.95 229.202Z" fill="#FFC95C"/>
<path d="M1031.34 257.939L1029.75 261.089C1031.4 264.395 1033.77 267.273 1036.66 269.519L1037.9 267.038C1034.99 264.651 1032.7 261.52 1031.34 257.939Z" fill="#FFC95C"/>
<path d="M1044.39 247.526V244.813C1044.39 242.321 1046.42 240.292 1048.91 240.292H1051.37L1054.43 234.221C1053.51 234.062 1052.58 233.963 1051.62 233.963C1047.88 233.963 1044.45 235.241 1041.7 237.366L1035.36 249.948C1035.36 250.046 1035.35 250.141 1035.35 250.239C1035.35 254.878 1037.31 259.058 1040.43 262.026L1046 250.958C1045.02 250.127 1044.39 248.906 1044.39 247.526Z" fill="#FFC95C"/>
<path d="M1048.91 243.91C1048.41 243.91 1048.01 244.316 1048.01 244.814V246.975L1049.55 243.91H1048.91Z" fill="#FFC95C"/>
<path d="M1048.01 244.814C1048.01 244.315 1048.41 243.909 1048.91 243.909H1049.55L1051.37 240.292H1048.91C1046.42 240.292 1044.39 242.321 1044.39 244.814V247.526C1044.39 248.906 1045.02 250.128 1046 250.958L1048.01 246.975V244.814Z" fill="#FED97A"/>
<path d="M1059.19 235.838C1060.69 236.632 1062.06 237.652 1063.24 238.857L1065.78 233.814C1064.51 232.721 1063.12 231.772 1061.63 230.992L1059.19 235.838Z" fill="#FED97A"/>
<path d="M1042.12 269.741C1043.61 270.47 1045.19 271.031 1046.85 271.404L1049.4 266.344C1047.69 266.109 1046.06 265.608 1044.56 264.882L1042.12 269.741Z" fill="#FED97A"/>
<path d="M1064.42 229.442C1063.91 229.127 1063.38 228.835 1062.85 228.559L1061.63 230.992C1063.12 231.772 1064.51 232.721 1065.78 233.814L1067.03 231.333C1066.2 230.654 1065.33 230.008 1064.42 229.442Z" fill="#FFC95C"/>
<path d="M1040.89 272.171C1042.38 272.901 1043.95 273.485 1045.59 273.902L1046.85 271.406C1045.19 271.032 1043.61 270.472 1042.12 269.742L1040.89 272.171Z" fill="#FFC95C"/>
<path d="M1047.12 259.81L1044.56 264.883C1046.06 265.609 1047.69 266.11 1049.4 266.345L1052.5 260.185H1048.91C1048.27 260.185 1047.67 260.05 1047.12 259.81Z" fill="#FFC95C"/>
<path d="M1056.62 240.934C1057.95 241.722 1058.86 243.157 1058.86 244.813H1055.24C1055.24 244.569 1055.14 244.349 1054.98 244.186L1052.85 248.43H1054.34C1055.66 248.43 1056.84 249.012 1057.67 249.923L1063.24 238.857C1062.06 237.652 1060.69 236.632 1059.19 235.838L1056.62 240.934Z" fill="#FFC95C"/>
<path d="M1054.32 256.568L1055.24 254.747V252.952C1055.24 252.453 1054.83 252.047 1054.34 252.047H1051.03L1048.76 256.539C1048.81 256.548 1048.86 256.568 1048.91 256.568H1054.32Z" fill="#FFC95C"/>
<path d="M1055.24 244.813H1058.86C1058.86 243.158 1057.95 241.722 1056.62 240.934L1054.98 244.187C1055.14 244.349 1055.24 244.569 1055.24 244.813Z" fill="#FED97A"/>
<path d="M1054.34 248.431H1052.85L1051.02 252.048H1054.34C1054.83 252.048 1055.24 252.454 1055.24 252.952V254.747L1057.67 249.924C1056.84 249.013 1055.66 248.431 1054.34 248.431Z" fill="#FED97A"/>
<path d="M1048.91 256.568C1048.86 256.568 1048.81 256.548 1048.76 256.539L1047.12 259.81C1047.67 260.05 1048.27 260.185 1048.91 260.185H1052.5L1054.32 256.568H1048.91Z" fill="#FED97A"/>
<path d="M1053.43 230.347C1058.93 230.347 1063.95 232.398 1067.78 235.774C1063.8 231.337 1058.03 228.538 1051.62 228.538C1039.66 228.538 1029.92 238.276 1029.92 250.239C1029.92 256.65 1032.72 262.42 1037.16 266.397C1033.78 262.571 1031.73 257.551 1031.73 252.048C1031.73 240.062 1041.45 230.347 1053.43 230.347Z" fill="#ED8D03"/>
<path d="M1083.2 248.431C1083.25 249.027 1083.27 249.633 1083.27 250.239C1083.27 251.785 1083.13 253.295 1082.84 254.76H1075.62H1075.61C1075.89 253.295 1076.04 251.785 1076.04 250.239C1076.04 249.633 1076.02 249.027 1075.96 248.44L1076.04 248.431H1083.2Z" fill="#E58800"/>
<path d="M1083.2 248.431H1076.04L1075.96 248.44C1075.81 246.233 1075.36 244.108 1074.64 242.11L1074.68 242.101H1081.88C1082.59 244.099 1083.04 246.224 1083.2 248.431Z" fill="#FEC430"/>
<path d="M1075.62 254.76H1082.84C1082.44 256.994 1081.71 259.119 1080.73 261.09H1073.5C1074.48 259.119 1075.2 256.994 1075.61 254.76H1075.62Z" fill="#FEC430"/>
<path d="M1081.88 242.101H1074.68L1074.64 242.11C1073.86 239.859 1072.74 237.77 1071.36 235.88L1071.51 235.771H1078.52C1079.93 237.679 1081.07 239.813 1081.88 242.101Z" fill="#E58800"/>
<path d="M1073.5 261.089H1080.73C1079.54 263.476 1077.98 265.638 1076.12 267.5L1076.04 267.419H1068.97C1070.79 265.574 1072.33 263.44 1073.5 261.089Z" fill="#E58800"/>
<path d="M1078.52 235.771H1071.52L1071.36 235.88C1069.5 233.312 1067.13 231.115 1064.42 229.442H1071.52L1071.55 229.388C1074.26 231.042 1076.63 233.213 1078.52 235.771Z" fill="#FEC430"/>
<path d="M1076.04 267.419L1076.12 267.5C1074.74 268.875 1073.21 270.077 1071.55 271.09L1071.52 271.036H1064.42C1066.07 270.014 1067.6 268.793 1068.97 267.419H1076.04Z" fill="#FEC430"/>
<path d="M1071.55 229.388L1071.51 229.442H1064.42C1060.7 227.145 1056.32 225.825 1051.62 225.825H1058.86C1063.51 225.825 1067.85 227.127 1071.55 229.388Z" fill="#E58800"/>
<path d="M1071.51 271.036L1071.55 271.09C1067.85 273.35 1063.51 274.652 1058.86 274.652H1051.62C1056.32 274.652 1060.7 273.332 1064.42 271.036H1071.51Z" fill="#E58800"/>
<path d="M1052.98 266.461C1052.54 266.497 1052.08 266.515 1051.62 266.515C1042.64 266.515 1035.35 259.218 1035.35 250.239C1035.35 241.26 1042.64 233.963 1051.62 233.963C1052.08 233.963 1052.54 233.981 1052.98 234.018C1044.62 234.705 1038.06 241.712 1038.06 250.239C1038.06 258.766 1044.62 265.774 1052.98 266.461Z" fill="#ED8D03"/>
<path d="M1049.81 241.197C1049.31 241.197 1048.91 240.792 1048.91 240.293V237.58C1048.91 237.081 1049.31 236.676 1049.81 236.676C1050.31 236.676 1050.72 237.081 1050.72 237.58V240.293C1050.72 240.792 1050.31 241.197 1049.81 241.197Z" fill="#FED97A"/>
<path d="M1053.43 241.197C1052.93 241.197 1052.53 240.792 1052.53 240.293V237.58C1052.53 237.081 1052.93 236.676 1053.43 236.676C1053.93 236.676 1054.34 237.081 1054.34 237.58V240.293C1054.34 240.792 1053.93 241.197 1053.43 241.197Z" fill="#FEC430"/>
<path d="M1049.81 263.802C1049.31 263.802 1048.91 263.397 1048.91 262.898V260.185C1048.91 259.686 1049.31 259.281 1049.81 259.281C1050.31 259.281 1050.72 259.686 1050.72 260.185V262.898C1050.72 263.397 1050.31 263.802 1049.81 263.802Z" fill="#FED97A"/>
<path d="M1053.43 263.802C1052.93 263.802 1052.53 263.397 1052.53 262.898V260.185C1052.53 259.686 1052.93 259.281 1053.43 259.281C1053.93 259.281 1054.34 259.686 1054.34 260.185V262.898C1054.34 263.397 1053.93 263.802 1053.43 263.802Z" fill="#FEC430"/>
<circle cx="1646.11" cy="764" r="3.11321" transform="rotate(-90 1646.11 764)" fill="#FE8D4D"/>
<circle cx="1646.11" cy="749.057" r="3.11321" transform="rotate(-90 1646.11 749.057)" fill="#FE8D4D"/>
<circle cx="1646.11" cy="734.113" r="3.11321" transform="rotate(-90 1646.11 734.113)" fill="#FE8D4D"/>
<circle cx="1661.06" cy="764" r="3.11321" transform="rotate(-90 1661.06 764)" fill="#FE8D4D"/>
<circle cx="1661.06" cy="749.057" r="3.11321" transform="rotate(-90 1661.06 749.057)" fill="#FE8D4D"/>
<circle cx="1661.06" cy="734.113" r="3.11321" transform="rotate(-90 1661.06 734.113)" fill="#FE8D4D"/>
<circle cx="1676" cy="764" r="3.11321" transform="rotate(-90 1676 764)" fill="#FE8D4D"/>
<circle cx="1676" cy="749.057" r="3.11321" transform="rotate(-90 1676 749.057)" fill="#FE8D4D"/>
<circle cx="1676" cy="734.113" r="3.11321" transform="rotate(-90 1676 734.113)" fill="#FE8D4D"/>
<circle cx="1690.94" cy="764" r="3.11321" transform="rotate(-90 1690.94 764)" fill="#FE8D4D"/>
<circle cx="1690.94" cy="749.057" r="3.11321" transform="rotate(-90 1690.94 749.057)" fill="#FE8D4D"/>
<circle cx="1690.94" cy="734.113" r="3.11321" transform="rotate(-90 1690.94 734.113)" fill="#FE8D4D"/>
<circle cx="1705.89" cy="764" r="3.11321" transform="rotate(-90 1705.89 764)" fill="#FE8D4D"/>
<circle cx="1705.89" cy="749.057" r="3.11321" transform="rotate(-90 1705.89 749.057)" fill="#FE8D4D"/>
<circle cx="1705.89" cy="734.113" r="3.11321" transform="rotate(-90 1705.89 734.113)" fill="#FE8D4D"/>
</g>
<defs>
<filter id="filter0_d_20_1635" x="1527" y="305" width="250" height="247" filterUnits="userSpaceOnUse" color-interpolation-filters="sRGB">
<feFlood flood-opacity="0" result="BackgroundImageFix"/>
<feColorMatrix in="SourceAlpha" type="matrix" values="0 0 0 0 0 0 0 0 0 0 0 0 0 0 0 0 0 0 127 0" result="hardAlpha"/>
<feOffset dy="11"/>
<feGaussianBlur stdDeviation="19.5"/>
<feColorMatrix type="matrix" values="0 0 0 0 0 0 0 0 0 0 0 0 0 0 0 0 0 0 0.07 0"/>
<feBlend mode="normal" in2="BackgroundImageFix" result="effect1_dropShadow_20_1635"/>
<feBlend mode="normal" in="SourceGraphic" in2="effect1_dropShadow_20_1635" result="shape"/>
</filter>
<filter id="filter1_d_20_1635" x="1595" y="371" width="115" height="115" filterUnits="userSpaceOnUse" color-interpolation-filters="sRGB">
<feFlood flood-opacity="0" result="BackgroundImageFix"/>
<feColorMatrix in="SourceAlpha" type="matrix" values="0 0 0 0 0 0 0 0 0 0 0 0 0 0 0 0 0 0 127 0" result="hardAlpha"/>
<feOffset dy="11"/>
<feGaussianBlur stdDeviation="11"/>
<feColorMatrix type="matrix" values="0 0 0 0 0 0 0 0 0 0 0 0 0 0 0 0 0 0 0.06 0"/>
<feBlend mode="normal" in2="BackgroundImageFix" result="effect1_dropShadow_20_1635"/>
<feBlend mode="normal" in="SourceGraphic" in2="effect1_dropShadow_20_1635" result="shape"/>
</filter>
<filter id="filter2_d_20_1635" x="963" y="177" width="181.848" height="195" filterUnits="userSpaceOnUse" color-interpolation-filters="sRGB">
<feFlood flood-opacity="0" result="BackgroundImageFix"/>
<feColorMatrix in="SourceAlpha" type="matrix" values="0 0 0 0 0 0 0 0 0 0 0 0 0 0 0 0 0 0 127 0" result="hardAlpha"/>
<feOffset dy="19"/>
<feGaussianBlur stdDeviation="18.5"/>
<feColorMatrix type="matrix" values="0 0 0 0 0.6 0 0 0 0 0.323478 0 0 0 0 0.07 0 0 0 0.13 0"/>
<feBlend mode="normal" in2="BackgroundImageFix" result="effect1_dropShadow_20_1635"/>
<feBlend mode="normal" in="SourceGraphic" in2="effect1_dropShadow_20_1635" result="shape"/>
</filter>
<linearGradient id="paint0_linear_20_1635" x1="1652.5" y1="355" x2="1610" y2="471" gradientUnits="userSpaceOnUse">
<stop offset="0.0694559" stop-color="#FF784E"/>
<stop offset="1" stop-color="#FFC989"/>
</linearGradient>
</defs>
</svg>
