<svg width="1033" height="703" viewBox="0 0 1033 703" fill="none" xmlns="http://www.w3.org/2000/svg">
<circle cx="593" cy="410" r="293" fill="#B2C3FF"/>
<circle cx="807" cy="132" r="17" fill="#B2C3FF"/>
<circle cx="844" cy="540" r="27" fill="#5F4BDB"/>
<circle cx="228.113" cy="129.113" r="3.11321" fill="#5F4BDB"/>
<circle cx="243.057" cy="129.113" r="3.11321" fill="#5F4BDB"/>
<circle cx="258" cy="129.113" r="3.11321" fill="#5F4BDB"/>
<circle cx="228.113" cy="144.057" r="3.11321" fill="#5F4BDB"/>
<circle cx="243.057" cy="144.057" r="3.11321" fill="#5F4BDB"/>
<circle cx="258" cy="144.057" r="3.11321" fill="#5F4BDB"/>
<circle cx="228.113" cy="159" r="3.11321" fill="#5F4BDB"/>
<circle cx="243.057" cy="159" r="3.11321" fill="#5F4BDB"/>
<circle cx="258" cy="159" r="3.11321" fill="#5F4BDB"/>
<circle cx="228.113" cy="173.943" r="3.11321" fill="#5F4BDB"/>
<circle cx="243.057" cy="173.943" r="3.11321" fill="#5F4BDB"/>
<circle cx="258" cy="173.943" r="3.11321" fill="#5F4BDB"/>
<circle cx="228.113" cy="188.887" r="3.11321" fill="#5F4BDB"/>
<circle cx="243.057" cy="188.887" r="3.11321" fill="#5F4BDB"/>
<circle cx="258" cy="188.887" r="3.11321" fill="#5F4BDB"/>
<circle cx="901.179" cy="590.102" r="2.17947" transform="rotate(-90 901.179 590.102)" fill="#CCCCCC"/>
<circle cx="901.179" cy="600.722" r="2.17947" transform="rotate(-90 901.179 600.722)" fill="#CCCCCC"/>
<circle cx="901.179" cy="611.342" r="2.17947" transform="rotate(-90 901.179 611.342)" fill="#CCCCCC"/>
<circle cx="901.179" cy="579.641" r="2.17947" transform="rotate(-90 901.179 579.641)" fill="#CCCCCC"/>
<circle cx="901.179" cy="569.18" r="2.17947" transform="rotate(-90 901.179 569.18)" fill="#CCCCCC"/>
<circle cx="911.641" cy="590.102" r="2.17947" transform="rotate(-90 911.641 590.102)" fill="#CCCCCC"/>
<circle cx="911.641" cy="600.722" r="2.17947" transform="rotate(-90 911.641 600.722)" fill="#CCCCCC"/>
<circle cx="911.641" cy="611.342" r="2.17947" transform="rotate(-90 911.641 611.342)" fill="#CCCCCC"/>
<circle cx="911.641" cy="579.641" r="2.17947" transform="rotate(-90 911.641 579.641)" fill="#CCCCCC"/>
<circle cx="911.641" cy="569.18" r="2.17947" transform="rotate(-90 911.641 569.18)" fill="#CCCCCC"/>
<circle cx="922.102" cy="590.102" r="2.17947" transform="rotate(-90 922.102 590.102)" fill="#CCCCCC"/>
<circle cx="922.102" cy="600.722" r="2.17947" transform="rotate(-90 922.102 600.722)" fill="#CCCCCC"/>
<circle cx="922.102" cy="611.342" r="2.17947" transform="rotate(-90 922.102 611.342)" fill="#CCCCCC"/>
<circle cx="922.102" cy="579.641" r="2.17947" transform="rotate(-90 922.102 579.641)" fill="#CCCCCC"/>
<circle cx="922.102" cy="569.18" r="2.17947" transform="rotate(-90 922.102 569.18)" fill="#CCCCCC"/>
<circle cx="932.564" cy="590.102" r="2.17947" transform="rotate(-90 932.564 590.102)" fill="#CCCCCC"/>
<circle cx="932.564" cy="600.722" r="2.17947" transform="rotate(-90 932.564 600.722)" fill="#CCCCCC"/>
<circle cx="932.564" cy="611.342" r="2.17947" transform="rotate(-90 932.564 611.342)" fill="#CCCCCC"/>
<circle cx="932.564" cy="579.641" r="2.17947" transform="rotate(-90 932.564 579.641)" fill="#CCCCCC"/>
<circle cx="932.564" cy="569.18" r="2.17947" transform="rotate(-90 932.564 569.18)" fill="#CCCCCC"/>
<circle cx="943.025" cy="590.102" r="2.17947" transform="rotate(-90 943.025 590.102)" fill="#CCCCCC"/>
<circle cx="943.025" cy="600.722" r="2.17947" transform="rotate(-90 943.025 600.722)" fill="#CCCCCC"/>
<circle cx="943.025" cy="611.342" r="2.17947" transform="rotate(-90 943.025 611.342)" fill="#CCCCCC"/>
<circle cx="943.025" cy="579.641" r="2.17947" transform="rotate(-90 943.025 579.641)" fill="#CCCCCC"/>
<circle cx="943.025" cy="569.18" r="2.17947" transform="rotate(-90 943.025 569.18)" fill="#CCCCCC"/>
<g filter="url(#filter0_d_1_901)">
<rect x="790" y="227" width="204" height="201" rx="17" fill="white"/>
</g>
<rect x="826" y="257" width="13" height="140.854" rx="6.5" fill="#EEEEEE"/>
<rect x="826" y="335.946" width="13" height="62.0541" rx="6.5" fill="url(#paint0_linear_1_901)"/>
<rect x="856" y="257" width="13" height="140.854" rx="6.5" fill="#EEEEEE"/>
<rect x="856" y="367.142" width="13" height="30.7125" rx="6.5" fill="url(#paint1_linear_1_901)"/>
<rect x="886" y="257" width="13" height="140.854" rx="6.5" fill="#EEEEEE"/>
<rect x="886" y="340.665" width="13" height="57.1889" rx="6.5" fill="url(#paint2_linear_1_901)"/>
<rect x="916" y="257" width="13" height="140.854" rx="6.5" fill="#EEEEEE"/>
<rect x="916" y="309.953" width="13" height="87.9014" rx="6.5" fill="url(#paint3_linear_1_901)"/>
<rect x="946" y="257" width="13" height="140.854" rx="6.5" fill="#EEEEEE"/>
<rect x="946" y="276.063" width="13" height="121.791" rx="6.5" fill="url(#paint4_linear_1_901)"/>
<g filter="url(#filter1_d_1_901)">
<path d="M712 101.224C721.389 101.224 729 93.6127 729 84.2239V35C729 25.6112 721.389 18 712 18L664 18C654.611 18 647 25.6112 647 35L647 101.224H712Z" fill="white"/>
<path d="M656.192 92L665.385 101.192L647 110V101.192L656.192 92Z" fill="white"/>
</g>
<g clip-path="url(#clip0_1_901)">
<path d="M688.649 35.6133V83.6094C701.783 83.4703 712.388 72.779 712.388 59.6113C712.388 46.4437 701.783 35.7524 688.649 35.6133Z" fill="#FFB739"/>
<path d="M688.649 35.6133C688.562 35.6123 688.475 35.6113 688.388 35.6113C675.133 35.6113 664.388 46.3568 664.388 59.6113C664.388 72.8659 675.133 83.6113 688.388 83.6113C688.475 83.6113 688.562 83.6104 688.649 83.6094C699.649 83.4433 708.525 72.7626 708.525 59.6113C708.525 46.4601 699.649 35.7794 688.649 35.6133Z" fill="#FFD17E"/>
<path d="M703.696 56.7139H702.247L688.388 70.8868H700.773C703.487 67.9079 705.144 63.9495 705.144 59.6112V58.1626C705.144 57.3658 704.493 56.7139 703.696 56.7139Z" fill="#09213D"/>
<path d="M674.529 56.7139H673.08C672.283 56.7139 671.631 57.3658 671.631 58.1626V59.6113C671.631 63.9491 673.288 67.9072 676.002 70.886L699.494 69.6241C701.223 66.8288 702.247 63.3619 702.247 59.6113L674.529 56.7139Z" fill="#233952"/>
<path d="M700.772 70.8858C697.742 74.2111 693.396 76.3155 688.566 76.3658L699.493 69.6235C699.941 70.0214 700.368 70.4425 700.772 70.8858Z" fill="#FF2B59"/>
<path d="M699.493 69.6234C696.997 73.6594 693.034 76.2961 688.566 76.3656C688.507 76.3666 688.447 76.3666 688.387 76.3666C683.486 76.3666 679.07 74.2515 676.002 70.8866C679.069 67.5199 683.486 65.4048 688.387 65.4048C692.643 65.4048 696.535 67.0003 699.493 69.6234Z" fill="#FF4E51"/>
<path d="M699.35 56.7139L697.901 61.0599H700.798C701.595 61.0599 702.247 60.408 702.247 59.6112V56.7139H699.35Z" fill="#FFEAC3"/>
<path d="M699.35 56.7139V59.6112C699.35 60.408 698.698 61.0599 697.901 61.0599H675.977C675.181 61.0599 674.529 60.408 674.529 59.6112V56.7139H699.35Z" fill="white"/>
<path d="M680.324 46.5732C679.523 46.5732 678.875 47.2219 678.875 48.0219V52.368C678.875 53.1681 679.523 53.8167 680.324 53.8167C681.124 53.8167 681.772 53.1681 681.772 52.368V48.0219C681.772 47.2219 681.124 46.5732 680.324 46.5732Z" fill="#233952"/>
<path d="M696.452 46.5732C695.652 46.5732 695.004 47.2219 695.004 48.0219V52.368C695.004 53.1681 695.652 53.8167 696.452 53.8167C697.252 53.8167 697.901 53.1681 697.901 52.368V48.0219C697.901 47.2219 697.252 46.5732 696.452 46.5732Z" fill="#233952"/>
<path d="M674.529 53.8168C675.329 53.8168 675.977 53.1682 675.977 52.3681C675.977 51.568 675.329 50.9194 674.529 50.9194C673.729 50.9194 673.08 51.568 673.08 52.3681C673.08 53.1682 673.729 53.8168 674.529 53.8168Z" fill="#FF4E51"/>
<path d="M702.247 53.8168C703.047 53.8168 703.696 53.1682 703.696 52.3681C703.696 51.568 703.047 50.9194 702.247 50.9194C701.447 50.9194 700.798 51.568 700.798 52.3681C700.798 53.1682 701.447 53.8168 702.247 53.8168Z" fill="#FF4E51"/>
</g>
<g filter="url(#filter2_bd_1_901)">
<rect x="39" y="481" width="416" height="154" rx="17" fill="white" fill-opacity="0.74"/>
</g>
<g clip-path="url(#clip1_1_901)">
<path d="M206.935 595.191C206.751 594.621 206.198 594.23 205.42 594.117L199.249 593.22L196.489 587.628C196.141 586.923 195.598 586.519 195 586.519C194.402 586.519 193.859 586.923 193.511 587.628L190.751 593.22L184.58 594.117C183.802 594.23 183.249 594.621 183.065 595.19C182.88 595.76 183.097 596.401 183.66 596.949L188.125 601.302L187.071 607.449C186.932 608.257 187.168 608.741 187.39 609.004C187.649 609.312 188.028 609.481 188.456 609.481C188.78 609.481 189.124 609.386 189.48 609.199L195 606.297L200.52 609.199C200.876 609.386 201.22 609.481 201.544 609.481H201.544C201.972 609.481 202.351 609.312 202.611 609.004C202.832 608.741 203.068 608.257 202.929 607.448L201.875 601.302L206.34 596.95C206.904 596.401 207.12 595.76 206.935 595.191Z" fill="#FF8412"/>
</g>
<g clip-path="url(#clip2_1_901)">
<path d="M239.935 595.191C239.751 594.621 239.198 594.23 238.42 594.117L232.249 593.22L229.489 587.628C229.141 586.923 228.598 586.519 228 586.519C227.402 586.519 226.859 586.923 226.511 587.628L223.751 593.22L217.58 594.117C216.802 594.23 216.249 594.621 216.065 595.19C215.88 595.76 216.097 596.401 216.66 596.949L221.125 601.302L220.071 607.449C219.932 608.257 220.168 608.741 220.39 609.004C220.649 609.312 221.028 609.481 221.456 609.481C221.78 609.481 222.124 609.386 222.48 609.199L228 606.297L233.52 609.199C233.876 609.386 234.22 609.481 234.544 609.481H234.544C234.972 609.481 235.351 609.312 235.611 609.004C235.832 608.741 236.068 608.257 235.929 607.448L234.875 601.302L239.34 596.95C239.904 596.401 240.12 595.76 239.935 595.191Z" fill="#FF8412"/>
</g>
<g clip-path="url(#clip3_1_901)">
<path d="M272.935 595.191C272.751 594.621 272.198 594.23 271.42 594.117L265.249 593.22L262.489 587.628C262.141 586.923 261.598 586.519 261 586.519C260.402 586.519 259.859 586.923 259.511 587.628L256.751 593.22L250.58 594.117C249.802 594.23 249.249 594.621 249.065 595.19C248.88 595.76 249.097 596.401 249.66 596.949L254.125 601.302L253.071 607.449C252.932 608.257 253.168 608.741 253.39 609.004C253.649 609.312 254.028 609.481 254.456 609.481C254.78 609.481 255.124 609.386 255.48 609.199L261 606.297L266.52 609.199C266.876 609.386 267.22 609.481 267.544 609.481H267.544C267.972 609.481 268.351 609.312 268.611 609.004C268.832 608.741 269.068 608.257 268.929 607.448L267.875 601.302L272.34 596.95C272.904 596.401 273.12 595.76 272.935 595.191Z" fill="#FF8412"/>
</g>
<g clip-path="url(#clip4_1_901)">
<path d="M305.935 595.191C305.751 594.621 305.198 594.23 304.42 594.117L298.249 593.22L295.489 587.628C295.141 586.923 294.598 586.519 294 586.519C293.402 586.519 292.859 586.923 292.511 587.628L289.751 593.22L283.58 594.117C282.802 594.23 282.249 594.621 282.065 595.19C281.88 595.76 282.097 596.401 282.66 596.949L287.125 601.302L286.071 607.449C285.932 608.257 286.168 608.741 286.39 609.004C286.649 609.312 287.028 609.481 287.456 609.481C287.78 609.481 288.124 609.386 288.48 609.199L294 606.297L299.52 609.199C299.876 609.386 300.22 609.481 300.544 609.481H300.544C300.972 609.481 301.351 609.312 301.611 609.004C301.832 608.741 302.068 608.257 301.929 607.448L300.875 601.302L305.34 596.95C305.904 596.401 306.12 595.76 305.935 595.191Z" fill="#FF8412"/>
</g>
<g clip-path="url(#clip5_1_901)">
<path d="M338.935 595.191C338.751 594.621 338.198 594.23 337.42 594.117L331.249 593.22L328.489 587.628C328.141 586.923 327.598 586.519 327 586.519C326.402 586.519 325.859 586.923 325.511 587.628L322.751 593.22L316.58 594.117C315.802 594.23 315.249 594.621 315.065 595.19C314.88 595.76 315.097 596.401 315.66 596.949L320.125 601.302L319.071 607.449C318.932 608.257 319.168 608.741 319.39 609.004C319.649 609.312 320.028 609.481 320.456 609.481C320.78 609.481 321.124 609.386 321.48 609.199L327 606.297L332.52 609.199C332.876 609.386 333.22 609.481 333.544 609.481H333.544C333.972 609.481 334.351 609.312 334.611 609.004C334.832 608.741 335.068 608.257 334.929 607.448L333.875 601.302L338.34 596.95C338.904 596.401 339.12 595.76 338.935 595.191Z" fill="#C9C9C9"/>
</g>
<path d="M359 527.333C356.099 527.333 353.264 528.193 350.852 529.805C348.44 531.417 346.56 533.707 345.45 536.387C344.34 539.067 344.049 542.016 344.615 544.861C345.181 547.706 346.578 550.32 348.629 552.371C350.68 554.422 353.294 555.819 356.139 556.385C358.984 556.951 361.933 556.66 364.613 555.55C367.293 554.44 369.583 552.56 371.195 550.148C372.806 547.736 373.667 544.901 373.667 542C373.662 538.111 372.115 534.384 369.366 531.634C366.616 528.885 362.888 527.338 359 527.333ZM359 554C356.627 554 354.307 553.296 352.333 551.978C350.36 550.659 348.822 548.785 347.913 546.592C347.005 544.399 346.768 541.987 347.231 539.659C347.694 537.331 348.836 535.193 350.515 533.515C352.193 531.836 354.331 530.694 356.659 530.23C358.987 529.767 361.399 530.005 363.592 530.913C365.785 531.822 367.659 533.36 368.978 535.333C370.296 537.306 371 539.627 371 542C370.996 545.181 369.731 548.232 367.481 550.481C365.232 552.731 362.182 553.996 359 554Z" fill="#30C736"/>
<path d="M364.765 537.684L357.707 544.155L354.609 541.057C354.486 540.93 354.339 540.828 354.177 540.759C354.014 540.689 353.839 540.652 353.662 540.65C353.485 540.649 353.309 540.683 353.145 540.75C352.982 540.817 352.833 540.916 352.707 541.041C352.582 541.166 352.483 541.315 352.416 541.479C352.349 541.643 352.315 541.818 352.317 541.995C352.319 542.172 352.355 542.347 352.425 542.51C352.495 542.673 352.597 542.82 352.724 542.943L356.724 546.943C356.967 547.186 357.294 547.326 357.638 547.333C357.982 547.34 358.315 547.215 358.568 546.983L366.568 539.649C366.829 539.41 366.984 539.078 366.999 538.724C367.014 538.371 366.888 538.026 366.649 537.765C366.41 537.505 366.077 537.35 365.724 537.334C365.371 537.319 365.026 537.445 364.765 537.684Z" fill="#30C736"/>
<path d="M410 556.667C412.901 556.667 415.736 555.807 418.148 554.195C420.56 552.583 422.44 550.293 423.55 547.613C424.66 544.933 424.951 541.984 424.385 539.139C423.819 536.294 422.422 533.68 420.371 531.629C418.32 529.578 415.706 528.181 412.861 527.615C410.016 527.049 407.067 527.34 404.387 528.45C401.707 529.56 399.417 531.44 397.805 533.852C396.194 536.264 395.333 539.099 395.333 542C395.338 545.889 396.885 549.616 399.634 552.366C402.384 555.116 406.112 556.662 410 556.667ZM410 530C412.373 530 414.693 530.704 416.667 532.023C418.64 533.341 420.178 535.215 421.087 537.408C421.995 539.601 422.232 542.013 421.769 544.341C421.306 546.669 420.164 548.807 418.485 550.485C416.807 552.164 414.669 553.307 412.341 553.77C410.013 554.233 407.601 553.995 405.408 553.087C403.215 552.178 401.341 550.64 400.022 548.667C398.704 546.694 398 544.374 398 542C398.004 538.819 399.269 535.768 401.519 533.519C403.768 531.269 406.818 530.004 410 530Z" fill="#FF5353"/>
<path d="M405.057 546.943C405.307 547.193 405.646 547.333 406 547.333C406.354 547.333 406.693 547.193 406.943 546.943L410 543.885L413.057 546.943C413.309 547.186 413.646 547.32 413.995 547.317C414.345 547.314 414.679 547.174 414.926 546.926C415.174 546.679 415.314 546.345 415.317 545.995C415.32 545.646 415.186 545.309 414.943 545.057L411.885 542L414.943 538.943C415.186 538.691 415.32 538.354 415.317 538.005C415.314 537.655 415.174 537.321 414.926 537.074C414.679 536.826 414.345 536.686 413.995 536.683C413.646 536.68 413.309 536.815 413.057 537.057L410 540.115L406.943 537.057C406.691 536.815 406.354 536.68 406.005 536.683C405.655 536.686 405.321 536.826 405.074 537.074C404.826 537.321 404.686 537.655 404.683 538.005C404.68 538.354 404.814 538.691 405.057 538.943L408.115 542L405.057 545.057C404.807 545.307 404.667 545.647 404.667 546C404.667 546.354 404.807 546.693 405.057 546.943Z" fill="#FF5353"/>
<rect x="65" y="507" width="102" height="102" rx="20" fill="#C4C4C4"/>
<path d="M191.138 517.852H184.794V536H191.138C196.936 536 200.706 532.438 200.706 526.952C200.706 521.44 196.936 517.852 191.138 517.852ZM188.434 532.906V520.92H191.008C194.83 520.92 196.988 523.182 196.988 526.952C196.988 530.722 194.83 532.906 191.008 532.906H188.434ZM202.495 528.746C202.495 533.244 205.407 536.234 209.047 536.234C211.335 536.234 212.973 535.142 213.831 533.894V536H217.497V521.596H213.831V523.65C212.973 522.454 211.387 521.362 209.073 521.362C205.407 521.362 202.495 524.248 202.495 528.746ZM213.831 528.798C213.831 531.528 212.011 533.036 210.009 533.036C208.059 533.036 206.213 531.476 206.213 528.746C206.213 526.016 208.059 524.56 210.009 524.56C212.011 524.56 213.831 526.068 213.831 528.798ZM219.518 521.596L224.822 536H229.242L234.572 521.596H230.698L227.058 532.646L223.418 521.596H219.518ZM236.616 536H240.256V521.596H236.616V536ZM238.462 519.88C239.736 519.88 240.698 518.944 240.698 517.748C240.698 516.552 239.736 515.616 238.462 515.616C237.162 515.616 236.226 516.552 236.226 517.748C236.226 518.944 237.162 519.88 238.462 519.88ZM242.917 528.746C242.917 533.244 245.829 536.234 249.495 536.234C251.757 536.234 253.369 535.194 254.227 533.868V536H257.919V516.76H254.227V523.598C253.239 522.246 251.419 521.362 249.521 521.362C245.829 521.362 242.917 524.248 242.917 528.746ZM254.253 528.798C254.253 531.528 252.433 533.036 250.431 533.036C248.481 533.036 246.635 531.476 246.635 528.746C246.635 526.016 248.481 524.56 250.431 524.56C252.433 524.56 254.253 526.068 254.253 528.798Z" fill="black"/>
<path d="M192.558 556.292V563.221C192.558 564.441 192.189 565.401 191.452 566.099C190.715 566.797 189.702 567.146 188.413 567.146C187.124 567.146 186.125 566.795 185.417 566.092C184.714 565.389 184.362 564.422 184.362 563.191V556.292H185.607V563.279C185.607 564.173 185.852 564.859 186.34 565.337C186.828 565.816 187.546 566.055 188.493 566.055C189.396 566.055 190.092 565.816 190.581 565.337C191.069 564.854 191.313 564.163 191.313 563.265V556.292H192.558ZM195.4 567V556.292H196.645V567H195.4ZM203.471 556.292L199.479 567H198.264L202.255 556.292H203.471ZM213.183 556.292V563.221C213.183 564.441 212.814 565.401 212.077 566.099C211.34 566.797 210.327 567.146 209.038 567.146C207.749 567.146 206.75 566.795 206.042 566.092C205.339 565.389 204.987 564.422 204.987 563.191V556.292H206.232V563.279C206.232 564.173 206.477 564.859 206.965 565.337C207.453 565.816 208.171 566.055 209.118 566.055C210.021 566.055 210.717 565.816 211.206 565.337C211.694 564.854 211.938 564.163 211.938 563.265V556.292H213.183ZM223.151 567H221.738L218.859 562.291L215.93 567H214.611L218.171 561.404L214.853 556.292H216.23L218.889 560.533L221.569 556.292H222.895L219.577 561.36L223.151 567ZM237.126 561.543C237.126 563.311 236.645 564.664 235.683 565.601C234.726 566.534 233.347 567 231.545 567H228.579V556.292H231.86C233.525 556.292 234.819 556.753 235.742 557.676C236.665 558.599 237.126 559.888 237.126 561.543ZM235.808 561.587C235.808 560.191 235.456 559.139 234.753 558.431C234.055 557.723 233.015 557.369 231.633 557.369H229.824V565.923H231.34C232.824 565.923 233.94 565.56 234.687 564.832C235.434 564.1 235.808 563.018 235.808 561.587ZM242.729 567.146C241.542 567.146 240.605 566.785 239.917 566.062C239.233 565.34 238.891 564.336 238.891 563.052C238.891 561.758 239.208 560.73 239.843 559.969C240.483 559.207 241.34 558.826 242.414 558.826C243.42 558.826 244.216 559.158 244.802 559.822C245.388 560.481 245.681 561.353 245.681 562.437V563.206H240.151C240.175 564.148 240.412 564.864 240.861 565.352C241.315 565.84 241.953 566.084 242.773 566.084C243.637 566.084 244.492 565.904 245.336 565.542V566.626C244.907 566.812 244.499 566.944 244.113 567.022C243.732 567.105 243.271 567.146 242.729 567.146ZM242.399 559.844C241.755 559.844 241.24 560.054 240.854 560.474C240.473 560.894 240.249 561.475 240.18 562.217H244.377C244.377 561.451 244.206 560.865 243.864 560.459C243.522 560.049 243.034 559.844 242.399 559.844ZM252.939 564.81C252.939 565.557 252.661 566.133 252.104 566.539C251.547 566.944 250.766 567.146 249.76 567.146C248.696 567.146 247.866 566.978 247.27 566.641V565.513C247.656 565.708 248.068 565.862 248.508 565.975C248.952 566.087 249.379 566.143 249.79 566.143C250.424 566.143 250.913 566.043 251.254 565.843C251.596 565.638 251.767 565.328 251.767 564.913C251.767 564.6 251.63 564.334 251.357 564.114C251.088 563.89 250.561 563.626 249.775 563.323C249.028 563.045 248.496 562.803 248.178 562.598C247.866 562.388 247.631 562.151 247.475 561.888C247.324 561.624 247.248 561.309 247.248 560.943C247.248 560.289 247.514 559.773 248.046 559.397C248.579 559.017 249.309 558.826 250.236 558.826C251.101 558.826 251.945 559.002 252.771 559.354L252.338 560.342C251.533 560.01 250.803 559.844 250.148 559.844C249.572 559.844 249.138 559.935 248.845 560.115C248.552 560.296 248.405 560.545 248.405 560.862C248.405 561.077 248.459 561.26 248.566 561.412C248.679 561.563 248.857 561.707 249.101 561.844C249.345 561.98 249.814 562.178 250.507 562.437C251.459 562.784 252.102 563.133 252.434 563.484C252.771 563.836 252.939 564.278 252.939 564.81ZM256.14 567H254.924V558.973H256.14V567ZM254.821 556.797C254.821 556.519 254.89 556.316 255.026 556.189C255.163 556.058 255.334 555.992 255.539 555.992C255.734 555.992 255.903 556.058 256.044 556.189C256.186 556.321 256.257 556.524 256.257 556.797C256.257 557.071 256.186 557.276 256.044 557.413C255.903 557.544 255.734 557.61 255.539 557.61C255.334 557.61 255.163 557.544 255.026 557.413C254.89 557.276 254.821 557.071 254.821 556.797ZM265.288 558.973V559.742L263.801 559.917C263.938 560.088 264.06 560.313 264.167 560.591C264.274 560.865 264.328 561.175 264.328 561.521C264.328 562.308 264.06 562.935 263.522 563.404C262.985 563.873 262.248 564.107 261.311 564.107C261.071 564.107 260.847 564.087 260.637 564.048C260.119 564.322 259.86 564.666 259.86 565.081C259.86 565.301 259.951 565.464 260.131 565.572C260.312 565.674 260.622 565.726 261.062 565.726H262.482C263.352 565.726 264.018 565.909 264.482 566.275C264.951 566.641 265.185 567.173 265.185 567.872C265.185 568.76 264.829 569.437 264.116 569.9C263.403 570.369 262.363 570.604 260.996 570.604C259.946 570.604 259.135 570.408 258.564 570.018C257.998 569.627 257.714 569.075 257.714 568.362C257.714 567.874 257.871 567.452 258.183 567.095C258.496 566.739 258.935 566.497 259.501 566.37C259.296 566.277 259.123 566.133 258.981 565.938C258.845 565.743 258.776 565.516 258.776 565.257C258.776 564.964 258.854 564.708 259.011 564.488C259.167 564.268 259.414 564.056 259.75 563.851C259.335 563.68 258.996 563.389 258.732 562.979C258.474 562.569 258.344 562.1 258.344 561.573C258.344 560.694 258.608 560.018 259.135 559.544C259.663 559.065 260.41 558.826 261.376 558.826C261.796 558.826 262.175 558.875 262.512 558.973H265.288ZM258.886 568.348C258.886 568.782 259.069 569.112 259.436 569.336C259.802 569.561 260.327 569.673 261.01 569.673C262.031 569.673 262.785 569.52 263.273 569.212C263.767 568.909 264.013 568.497 264.013 567.974C264.013 567.54 263.879 567.237 263.61 567.066C263.342 566.9 262.836 566.817 262.094 566.817H260.637C260.085 566.817 259.655 566.949 259.348 567.212C259.04 567.476 258.886 567.854 258.886 568.348ZM259.545 561.543C259.545 562.105 259.704 562.53 260.021 562.818C260.339 563.106 260.781 563.25 261.347 563.25C262.534 563.25 263.127 562.674 263.127 561.521C263.127 560.315 262.526 559.712 261.325 559.712C260.754 559.712 260.314 559.866 260.007 560.174C259.699 560.481 259.545 560.938 259.545 561.543ZM272.429 567V561.807C272.429 561.153 272.28 560.665 271.982 560.342C271.684 560.02 271.218 559.859 270.583 559.859C269.743 559.859 269.128 560.086 268.737 560.54C268.347 560.994 268.151 561.744 268.151 562.789V567H266.936V558.973H267.924L268.122 560.071H268.181C268.43 559.676 268.779 559.371 269.228 559.156C269.677 558.936 270.178 558.826 270.729 558.826C271.696 558.826 272.424 559.061 272.912 559.529C273.4 559.993 273.645 560.738 273.645 561.763V567H272.429ZM279.541 567.146C278.354 567.146 277.417 566.785 276.728 566.062C276.044 565.34 275.703 564.336 275.703 563.052C275.703 561.758 276.02 560.73 276.655 559.969C277.294 559.207 278.151 558.826 279.226 558.826C280.231 558.826 281.027 559.158 281.613 559.822C282.199 560.481 282.492 561.353 282.492 562.437V563.206H276.962C276.987 564.148 277.224 564.864 277.673 565.352C278.127 565.84 278.764 566.084 279.584 566.084C280.449 566.084 281.303 565.904 282.148 565.542V566.626C281.718 566.812 281.311 566.944 280.925 567.022C280.544 567.105 280.083 567.146 279.541 567.146ZM279.211 559.844C278.566 559.844 278.051 560.054 277.666 560.474C277.285 560.894 277.06 561.475 276.992 562.217H281.188C281.188 561.451 281.018 560.865 280.676 560.459C280.334 560.049 279.846 559.844 279.211 559.844ZM288.234 558.826C288.591 558.826 288.911 558.855 289.194 558.914L289.025 560.042C288.693 559.969 288.4 559.932 288.146 559.932C287.497 559.932 286.94 560.196 286.477 560.723C286.018 561.25 285.788 561.907 285.788 562.693V567H284.572V558.973H285.576L285.715 560.459H285.773C286.071 559.937 286.43 559.534 286.85 559.251C287.27 558.968 287.731 558.826 288.234 558.826Z" fill="black"/>
<defs>
<filter id="filter0_d_1_901" x="751" y="199" width="282" height="279" filterUnits="userSpaceOnUse" color-interpolation-filters="sRGB">
<feFlood flood-opacity="0" result="BackgroundImageFix"/>
<feColorMatrix in="SourceAlpha" type="matrix" values="0 0 0 0 0 0 0 0 0 0 0 0 0 0 0 0 0 0 127 0" result="hardAlpha"/>
<feOffset dy="11"/>
<feGaussianBlur stdDeviation="19.5"/>
<feColorMatrix type="matrix" values="0 0 0 0 0 0 0 0 0 0 0 0 0 0 0 0 0 0 0.07 0"/>
<feBlend mode="normal" in2="BackgroundImageFix" result="effect1_dropShadow_1_901"/>
<feBlend mode="normal" in="SourceGraphic" in2="effect1_dropShadow_1_901" result="shape"/>
</filter>
<filter id="filter1_d_1_901" x="610" y="0" width="156" height="166" filterUnits="userSpaceOnUse" color-interpolation-filters="sRGB">
<feFlood flood-opacity="0" result="BackgroundImageFix"/>
<feColorMatrix in="SourceAlpha" type="matrix" values="0 0 0 0 0 0 0 0 0 0 0 0 0 0 0 0 0 0 127 0" result="hardAlpha"/>
<feOffset dy="19"/>
<feGaussianBlur stdDeviation="18.5"/>
<feColorMatrix type="matrix" values="0 0 0 0 0.243137 0 0 0 0 0.207843 0 0 0 0 0.470588 0 0 0 0.03 0"/>
<feBlend mode="normal" in2="BackgroundImageFix" result="effect1_dropShadow_1_901"/>
<feBlend mode="normal" in="SourceGraphic" in2="effect1_dropShadow_1_901" result="shape"/>
</filter>
<filter id="filter2_bd_1_901" x="0" y="453" width="494" height="232" filterUnits="userSpaceOnUse" color-interpolation-filters="sRGB">
<feFlood flood-opacity="0" result="BackgroundImageFix"/>
<feGaussianBlur in="BackgroundImageFix" stdDeviation="5.5"/>
<feComposite in2="SourceAlpha" operator="in" result="effect1_backgroundBlur_1_901"/>
<feColorMatrix in="SourceAlpha" type="matrix" values="0 0 0 0 0 0 0 0 0 0 0 0 0 0 0 0 0 0 127 0" result="hardAlpha"/>
<feOffset dy="11"/>
<feGaussianBlur stdDeviation="19.5"/>
<feColorMatrix type="matrix" values="0 0 0 0 0 0 0 0 0 0 0 0 0 0 0 0 0 0 0.07 0"/>
<feBlend mode="normal" in2="effect1_backgroundBlur_1_901" result="effect2_dropShadow_1_901"/>
<feBlend mode="normal" in="SourceGraphic" in2="effect2_dropShadow_1_901" result="shape"/>
</filter>
<linearGradient id="paint0_linear_1_901" x1="832.5" y1="335.946" x2="832.5" y2="398" gradientUnits="userSpaceOnUse">
<stop stop-color="#FFC188"/>
<stop offset="1" stop-color="#FA7C61"/>
</linearGradient>
<linearGradient id="paint1_linear_1_901" x1="862.5" y1="367.142" x2="862.5" y2="397.854" gradientUnits="userSpaceOnUse">
<stop stop-color="#FFC188"/>
<stop offset="1" stop-color="#FA7C61"/>
</linearGradient>
<linearGradient id="paint2_linear_1_901" x1="892.5" y1="340.665" x2="892.5" y2="397.854" gradientUnits="userSpaceOnUse">
<stop stop-color="#FFC188"/>
<stop offset="1" stop-color="#FA7C61"/>
</linearGradient>
<linearGradient id="paint3_linear_1_901" x1="922.5" y1="309.953" x2="922.5" y2="397.854" gradientUnits="userSpaceOnUse">
<stop stop-color="#FFC188"/>
<stop offset="1" stop-color="#FA7C61"/>
</linearGradient>
<linearGradient id="paint4_linear_1_901" x1="952.5" y1="276.063" x2="952.5" y2="397.854" gradientUnits="userSpaceOnUse">
<stop stop-color="#FFC188"/>
<stop offset="1" stop-color="#FA7C61"/>
</linearGradient>
<clipPath id="clip0_1_901">
<rect width="48" height="48" fill="white" transform="translate(664.388 35.6113)"/>
</clipPath>
<clipPath id="clip1_1_901">
<rect width="24" height="24" fill="white" transform="translate(183 586)"/>
</clipPath>
<clipPath id="clip2_1_901">
<rect width="24" height="24" fill="white" transform="translate(216 586)"/>
</clipPath>
<clipPath id="clip3_1_901">
<rect width="24" height="24" fill="white" transform="translate(249 586)"/>
</clipPath>
<clipPath id="clip4_1_901">
<rect width="24" height="24" fill="white" transform="translate(282 586)"/>
</clipPath>
<clipPath id="clip5_1_901">
<rect width="24" height="24" fill="white" transform="translate(315 586)"/>
</clipPath>
</defs>
</svg>
