<svg width="1920" height="813" viewBox="0 0 1920 813" fill="none" xmlns="http://www.w3.org/2000/svg">
<mask id="mask0_9_25" style="mask-type:alpha" maskUnits="userSpaceOnUse" x="0" y="0" width="1920" height="813">
<rect width="1920" height="813" fill="white"/>
</mask>
<g mask="url(#mask0_9_25)">
<circle cx="1363.5" cy="481.5" r="287.5" fill="#B3C3FF"/>
</g>
<circle cx="1576" cy="201" r="17" fill="#B2C3FF"/>
<circle cx="1613" cy="609" r="27" fill="#5F4BDB"/>
<circle cx="997.113" cy="198.113" r="3.11321" fill="#5F4BDB"/>
<circle cx="1012.06" cy="198.113" r="3.11321" fill="#5F4BDB"/>
<circle cx="1027" cy="198.113" r="3.11321" fill="#5F4BDB"/>
<circle cx="997.113" cy="213.057" r="3.11321" fill="#5F4BDB"/>
<circle cx="1012.06" cy="213.057" r="3.11321" fill="#5F4BDB"/>
<circle cx="1027" cy="213.057" r="3.11321" fill="#5F4BDB"/>
<circle cx="997.113" cy="228" r="3.11321" fill="#5F4BDB"/>
<circle cx="1012.06" cy="228" r="3.11321" fill="#5F4BDB"/>
<circle cx="1027" cy="228" r="3.11321" fill="#5F4BDB"/>
<circle cx="997.113" cy="242.943" r="3.11321" fill="#5F4BDB"/>
<circle cx="1012.06" cy="242.943" r="3.11321" fill="#5F4BDB"/>
<circle cx="1027" cy="242.943" r="3.11321" fill="#5F4BDB"/>
<circle cx="997.113" cy="257.887" r="3.11321" fill="#5F4BDB"/>
<circle cx="1012.06" cy="257.887" r="3.11321" fill="#5F4BDB"/>
<circle cx="1027" cy="257.887" r="3.11321" fill="#5F4BDB"/>
<circle cx="1670.18" cy="659.102" r="2.17947" transform="rotate(-90 1670.18 659.102)" fill="#CCCCCC"/>
<circle cx="1670.18" cy="669.722" r="2.17947" transform="rotate(-90 1670.18 669.722)" fill="#CCCCCC"/>
<circle cx="1670.18" cy="680.342" r="2.17947" transform="rotate(-90 1670.18 680.342)" fill="#CCCCCC"/>
<circle cx="1670.18" cy="648.641" r="2.17947" transform="rotate(-90 1670.18 648.641)" fill="#CCCCCC"/>
<circle cx="1670.18" cy="638.18" r="2.17947" transform="rotate(-90 1670.18 638.18)" fill="#CCCCCC"/>
<circle cx="1680.64" cy="659.102" r="2.17947" transform="rotate(-90 1680.64 659.102)" fill="#CCCCCC"/>
<circle cx="1680.64" cy="669.722" r="2.17947" transform="rotate(-90 1680.64 669.722)" fill="#CCCCCC"/>
<circle cx="1680.64" cy="680.342" r="2.17947" transform="rotate(-90 1680.64 680.342)" fill="#CCCCCC"/>
<circle cx="1680.64" cy="648.641" r="2.17947" transform="rotate(-90 1680.64 648.641)" fill="#CCCCCC"/>
<circle cx="1680.64" cy="638.18" r="2.17947" transform="rotate(-90 1680.64 638.18)" fill="#CCCCCC"/>
<circle cx="1691.1" cy="659.102" r="2.17947" transform="rotate(-90 1691.1 659.102)" fill="#CCCCCC"/>
<circle cx="1691.1" cy="669.722" r="2.17947" transform="rotate(-90 1691.1 669.722)" fill="#CCCCCC"/>
<circle cx="1691.1" cy="680.342" r="2.17947" transform="rotate(-90 1691.1 680.342)" fill="#CCCCCC"/>
<circle cx="1691.1" cy="648.641" r="2.17947" transform="rotate(-90 1691.1 648.641)" fill="#CCCCCC"/>
<circle cx="1691.1" cy="638.18" r="2.17947" transform="rotate(-90 1691.1 638.18)" fill="#CCCCCC"/>
<circle cx="1701.56" cy="659.102" r="2.17947" transform="rotate(-90 1701.56 659.102)" fill="#CCCCCC"/>
<circle cx="1701.56" cy="669.722" r="2.17947" transform="rotate(-90 1701.56 669.722)" fill="#CCCCCC"/>
<circle cx="1701.56" cy="680.342" r="2.17947" transform="rotate(-90 1701.56 680.342)" fill="#CCCCCC"/>
<circle cx="1701.56" cy="648.641" r="2.17947" transform="rotate(-90 1701.56 648.641)" fill="#CCCCCC"/>
<circle cx="1701.56" cy="638.18" r="2.17947" transform="rotate(-90 1701.56 638.18)" fill="#CCCCCC"/>
<circle cx="1712.03" cy="659.102" r="2.17947" transform="rotate(-90 1712.03 659.102)" fill="#CCCCCC"/>
<circle cx="1712.03" cy="669.722" r="2.17947" transform="rotate(-90 1712.03 669.722)" fill="#CCCCCC"/>
<circle cx="1712.03" cy="680.342" r="2.17947" transform="rotate(-90 1712.03 680.342)" fill="#CCCCCC"/>
<circle cx="1712.03" cy="648.641" r="2.17947" transform="rotate(-90 1712.03 648.641)" fill="#CCCCCC"/>
<circle cx="1712.03" cy="638.18" r="2.17947" transform="rotate(-90 1712.03 638.18)" fill="#CCCCCC"/>
<g filter="url(#filter0_d_9_25)">
<rect x="1559" y="296" width="204" height="201" rx="17" fill="white"/>
</g>
<rect x="1595" y="326" width="13" height="140.854" rx="6.5" fill="#EEEEEE"/>
<rect x="1595" y="404.946" width="13" height="62.0541" rx="6.5" fill="url(#paint0_linear_9_25)"/>
<rect x="1625" y="326" width="13" height="140.854" rx="6.5" fill="#EEEEEE"/>
<rect x="1625" y="436.142" width="13" height="30.7125" rx="6.5" fill="url(#paint1_linear_9_25)"/>
<rect x="1655" y="326" width="13" height="140.854" rx="6.5" fill="#EEEEEE"/>
<rect x="1655" y="409.665" width="13" height="57.1889" rx="6.5" fill="url(#paint2_linear_9_25)"/>
<rect x="1685" y="326" width="13" height="140.854" rx="6.5" fill="#EEEEEE"/>
<rect x="1685" y="378.953" width="13" height="87.9014" rx="6.5" fill="url(#paint3_linear_9_25)"/>
<rect x="1715" y="326" width="13" height="140.854" rx="6.5" fill="#EEEEEE"/>
<rect x="1715" y="345.063" width="13" height="121.791" rx="6.5" fill="url(#paint4_linear_9_25)"/>
<g filter="url(#filter1_d_9_25)">
<path d="M1481 170.224C1490.39 170.224 1498 162.613 1498 153.224V104C1498 94.6112 1490.39 87 1481 87L1433 87C1423.61 87 1416 94.6112 1416 104L1416 170.224H1481Z" fill="white"/>
<path d="M1425.19 161L1434.38 170.192L1416 179V170.192L1425.19 161Z" fill="white"/>
</g>
<g clip-path="url(#clip0_9_25)">
<path d="M1457.65 104.613V152.609C1470.78 152.47 1481.39 141.779 1481.39 128.611C1481.39 115.444 1470.78 104.752 1457.65 104.613Z" fill="#FFB739"/>
<path d="M1457.65 104.613C1457.56 104.612 1457.47 104.611 1457.39 104.611C1444.13 104.611 1433.39 115.357 1433.39 128.611C1433.39 141.866 1444.13 152.611 1457.39 152.611C1457.47 152.611 1457.56 152.61 1457.65 152.609C1468.65 152.443 1477.52 141.763 1477.52 128.611C1477.52 115.46 1468.65 104.779 1457.65 104.613Z" fill="#FFD17E"/>
<path d="M1472.7 125.714H1471.25L1457.39 139.887H1469.77C1472.49 136.908 1474.14 132.95 1474.14 128.611V127.163C1474.14 126.366 1473.49 125.714 1472.7 125.714Z" fill="#09213D"/>
<path d="M1443.53 125.714H1442.08C1441.28 125.714 1440.63 126.366 1440.63 127.163V128.611C1440.63 132.949 1442.29 136.907 1445 139.886L1468.49 138.624C1470.22 135.829 1471.25 132.362 1471.25 128.611L1443.53 125.714Z" fill="#233952"/>
<path d="M1469.77 139.886C1466.74 143.211 1462.4 145.316 1457.57 145.366L1468.49 138.624C1468.94 139.021 1469.37 139.443 1469.77 139.886Z" fill="#FF2B59"/>
<path d="M1468.49 138.623C1466 142.659 1462.03 145.296 1457.57 145.366C1457.51 145.367 1457.45 145.367 1457.39 145.367C1452.49 145.367 1448.07 143.251 1445 139.887C1448.07 136.52 1452.49 134.405 1457.39 134.405C1461.64 134.405 1465.53 136 1468.49 138.623Z" fill="#FF4E51"/>
<path d="M1468.35 125.714L1466.9 130.06H1469.8C1470.6 130.06 1471.25 129.408 1471.25 128.611V125.714H1468.35Z" fill="#FFEAC3"/>
<path d="M1468.35 125.714V128.611C1468.35 129.408 1467.7 130.06 1466.9 130.06H1444.98C1444.18 130.06 1443.53 129.408 1443.53 128.611V125.714H1468.35Z" fill="white"/>
<path d="M1449.32 115.573C1448.52 115.573 1447.87 116.222 1447.87 117.022V121.368C1447.87 122.168 1448.52 122.817 1449.32 122.817C1450.12 122.817 1450.77 122.168 1450.77 121.368V117.022C1450.77 116.222 1450.12 115.573 1449.32 115.573Z" fill="#233952"/>
<path d="M1465.45 115.573C1464.65 115.573 1464 116.222 1464 117.022V121.368C1464 122.168 1464.65 122.817 1465.45 122.817C1466.25 122.817 1466.9 122.168 1466.9 121.368V117.022C1466.9 116.222 1466.25 115.573 1465.45 115.573Z" fill="#233952"/>
<path d="M1443.53 122.817C1444.33 122.817 1444.98 122.168 1444.98 121.368C1444.98 120.568 1444.33 119.919 1443.53 119.919C1442.73 119.919 1442.08 120.568 1442.08 121.368C1442.08 122.168 1442.73 122.817 1443.53 122.817Z" fill="#FF4E51"/>
<path d="M1471.25 122.817C1472.05 122.817 1472.7 122.168 1472.7 121.368C1472.7 120.568 1472.05 119.919 1471.25 119.919C1470.45 119.919 1469.8 120.568 1469.8 121.368C1469.8 122.168 1470.45 122.817 1471.25 122.817Z" fill="#FF4E51"/>
</g>
<g filter="url(#filter2_bd_9_25)">
<rect x="808" y="550" width="416" height="154" rx="17" fill="white" fill-opacity="0.74"/>
</g>
<g clip-path="url(#clip1_9_25)">
<path d="M975.935 664.191C975.751 663.621 975.198 663.23 974.42 663.117L968.249 662.22L965.489 656.628C965.141 655.923 964.598 655.519 964 655.519C963.402 655.519 962.859 655.923 962.511 656.628L959.751 662.22L953.58 663.117C952.802 663.23 952.249 663.621 952.065 664.19C951.88 664.76 952.097 665.401 952.66 665.949L957.125 670.302L956.071 676.449C955.932 677.257 956.168 677.741 956.39 678.004C956.649 678.312 957.028 678.481 957.456 678.481C957.78 678.481 958.124 678.386 958.48 678.199L964 675.297L969.52 678.199C969.876 678.386 970.22 678.481 970.544 678.481H970.544C970.972 678.481 971.351 678.312 971.611 678.004C971.832 677.741 972.068 677.257 971.929 676.448L970.875 670.302L975.34 665.95C975.904 665.401 976.12 664.76 975.935 664.191Z" fill="#FF8412"/>
</g>
<g clip-path="url(#clip2_9_25)">
<path d="M1008.94 664.191C1008.75 663.621 1008.2 663.23 1007.42 663.117L1001.25 662.22L998.489 656.628C998.141 655.923 997.598 655.519 997 655.519C996.402 655.519 995.859 655.923 995.511 656.628L992.751 662.22L986.58 663.117C985.802 663.23 985.249 663.621 985.065 664.19C984.88 664.76 985.097 665.401 985.66 665.949L990.125 670.302L989.071 676.449C988.932 677.257 989.168 677.741 989.39 678.004C989.649 678.312 990.028 678.481 990.456 678.481C990.78 678.481 991.124 678.386 991.48 678.199L997 675.297L1002.52 678.199C1002.88 678.386 1003.22 678.481 1003.54 678.481H1003.54C1003.97 678.481 1004.35 678.312 1004.61 678.004C1004.83 677.741 1005.07 677.257 1004.93 676.448L1003.87 670.302L1008.34 665.95C1008.9 665.401 1009.12 664.76 1008.94 664.191Z" fill="#FF8412"/>
</g>
<g clip-path="url(#clip3_9_25)">
<path d="M1041.94 664.191C1041.75 663.621 1041.2 663.23 1040.42 663.117L1034.25 662.22L1031.49 656.628C1031.14 655.923 1030.6 655.519 1030 655.519C1029.4 655.519 1028.86 655.923 1028.51 656.628L1025.75 662.22L1019.58 663.117C1018.8 663.23 1018.25 663.621 1018.06 664.19C1017.88 664.76 1018.1 665.401 1018.66 665.949L1023.13 670.302L1022.07 676.449C1021.93 677.257 1022.17 677.741 1022.39 678.004C1022.65 678.312 1023.03 678.481 1023.46 678.481C1023.78 678.481 1024.12 678.386 1024.48 678.199L1030 675.297L1035.52 678.199C1035.88 678.386 1036.22 678.481 1036.54 678.481H1036.54C1036.97 678.481 1037.35 678.312 1037.61 678.004C1037.83 677.741 1038.07 677.257 1037.93 676.448L1036.87 670.302L1041.34 665.95C1041.9 665.401 1042.12 664.76 1041.94 664.191Z" fill="#FF8412"/>
</g>
<g clip-path="url(#clip4_9_25)">
<path d="M1074.94 664.191C1074.75 663.621 1074.2 663.23 1073.42 663.117L1067.25 662.22L1064.49 656.628C1064.14 655.923 1063.6 655.519 1063 655.519C1062.4 655.519 1061.86 655.923 1061.51 656.628L1058.75 662.22L1052.58 663.117C1051.8 663.23 1051.25 663.621 1051.06 664.19C1050.88 664.76 1051.1 665.401 1051.66 665.949L1056.13 670.302L1055.07 676.449C1054.93 677.257 1055.17 677.741 1055.39 678.004C1055.65 678.312 1056.03 678.481 1056.46 678.481C1056.78 678.481 1057.12 678.386 1057.48 678.199L1063 675.297L1068.52 678.199C1068.88 678.386 1069.22 678.481 1069.54 678.481H1069.54C1069.97 678.481 1070.35 678.312 1070.61 678.004C1070.83 677.741 1071.07 677.257 1070.93 676.448L1069.87 670.302L1074.34 665.95C1074.9 665.401 1075.12 664.76 1074.94 664.191Z" fill="#FF8412"/>
</g>
<g clip-path="url(#clip5_9_25)">
<path d="M1107.94 664.191C1107.75 663.621 1107.2 663.23 1106.42 663.117L1100.25 662.22L1097.49 656.628C1097.14 655.923 1096.6 655.519 1096 655.519C1095.4 655.519 1094.86 655.923 1094.51 656.628L1091.75 662.22L1085.58 663.117C1084.8 663.23 1084.25 663.621 1084.06 664.19C1083.88 664.76 1084.1 665.401 1084.66 665.949L1089.13 670.302L1088.07 676.449C1087.93 677.257 1088.17 677.741 1088.39 678.004C1088.65 678.312 1089.03 678.481 1089.46 678.481C1089.78 678.481 1090.12 678.386 1090.48 678.199L1096 675.297L1101.52 678.199C1101.88 678.386 1102.22 678.481 1102.54 678.481H1102.54C1102.97 678.481 1103.35 678.312 1103.61 678.004C1103.83 677.741 1104.07 677.257 1103.93 676.448L1102.87 670.302L1107.34 665.95C1107.9 665.401 1108.12 664.76 1107.94 664.191Z" fill="#C9C9C9"/>
</g>
<path d="M1128 596.333C1125.1 596.333 1122.26 597.193 1119.85 598.805C1117.44 600.417 1115.56 602.707 1114.45 605.387C1113.34 608.067 1113.05 611.016 1113.62 613.861C1114.18 616.706 1115.58 619.32 1117.63 621.371C1119.68 623.422 1122.29 624.819 1125.14 625.385C1127.98 625.951 1130.93 625.66 1133.61 624.55C1136.29 623.44 1138.58 621.56 1140.19 619.148C1141.81 616.736 1142.67 613.901 1142.67 611C1142.66 607.111 1141.12 603.384 1138.37 600.634C1135.62 597.885 1131.89 596.338 1128 596.333ZM1128 623C1125.63 623 1123.31 622.296 1121.33 620.978C1119.36 619.659 1117.82 617.785 1116.91 615.592C1116.01 613.399 1115.77 610.987 1116.23 608.659C1116.69 606.331 1117.84 604.193 1119.51 602.515C1121.19 600.836 1123.33 599.694 1125.66 599.23C1127.99 598.767 1130.4 599.005 1132.59 599.913C1134.78 600.822 1136.66 602.36 1137.98 604.333C1139.3 606.306 1140 608.627 1140 611C1140 614.181 1138.73 617.232 1136.48 619.481C1134.23 621.731 1131.18 622.996 1128 623Z" fill="#30C736"/>
<path d="M1133.77 606.684L1126.71 613.155L1123.61 610.057C1123.49 609.93 1123.34 609.828 1123.18 609.759C1123.01 609.689 1122.84 609.652 1122.66 609.65C1122.48 609.649 1122.31 609.683 1122.15 609.75C1121.98 609.817 1121.83 609.916 1121.71 610.041C1121.58 610.166 1121.48 610.315 1121.42 610.479C1121.35 610.643 1121.32 610.818 1121.32 610.995C1121.32 611.172 1121.36 611.347 1121.43 611.51C1121.5 611.673 1121.6 611.82 1121.72 611.943L1125.72 615.943C1125.97 616.186 1126.29 616.326 1126.64 616.333C1126.98 616.34 1127.31 616.215 1127.57 615.983L1135.57 608.649C1135.83 608.41 1135.98 608.078 1136 607.724C1136.01 607.371 1135.89 607.026 1135.65 606.765C1135.41 606.505 1135.08 606.35 1134.72 606.334C1134.37 606.319 1134.03 606.445 1133.77 606.684Z" fill="#30C736"/>
<path d="M1179 625.667C1181.9 625.667 1184.74 624.807 1187.15 623.195C1189.56 621.583 1191.44 619.293 1192.55 616.613C1193.66 613.933 1193.95 610.984 1193.38 608.139C1192.82 605.294 1191.42 602.68 1189.37 600.629C1187.32 598.578 1184.71 597.181 1181.86 596.615C1179.02 596.049 1176.07 596.34 1173.39 597.45C1170.71 598.56 1168.42 600.44 1166.81 602.852C1165.19 605.264 1164.33 608.099 1164.33 611C1164.34 614.889 1165.88 618.616 1168.63 621.366C1171.38 624.116 1175.11 625.662 1179 625.667ZM1179 599C1181.37 599 1183.69 599.704 1185.67 601.023C1187.64 602.341 1189.18 604.215 1190.09 606.408C1190.99 608.601 1191.23 611.013 1190.77 613.341C1190.31 615.669 1189.16 617.807 1187.49 619.485C1185.81 621.164 1183.67 622.307 1181.34 622.77C1179.01 623.233 1176.6 622.995 1174.41 622.087C1172.22 621.178 1170.34 619.64 1169.02 617.667C1167.7 615.694 1167 613.374 1167 611C1167 607.819 1168.27 604.768 1170.52 602.519C1172.77 600.269 1175.82 599.004 1179 599Z" fill="#FF5353"/>
<path d="M1174.06 615.943C1174.31 616.193 1174.65 616.333 1175 616.333C1175.35 616.333 1175.69 616.193 1175.94 615.943L1179 612.885L1182.06 615.943C1182.31 616.186 1182.65 616.32 1183 616.317C1183.34 616.314 1183.68 616.174 1183.93 615.926C1184.17 615.679 1184.31 615.345 1184.32 614.995C1184.32 614.646 1184.19 614.309 1183.94 614.057L1180.89 611L1183.94 607.943C1184.19 607.691 1184.32 607.354 1184.32 607.005C1184.31 606.655 1184.17 606.321 1183.93 606.074C1183.68 605.826 1183.34 605.686 1183 605.683C1182.65 605.68 1182.31 605.815 1182.06 606.057L1179 609.115L1175.94 606.057C1175.69 605.815 1175.35 605.68 1175 605.683C1174.66 605.686 1174.32 605.826 1174.07 606.074C1173.83 606.321 1173.69 606.655 1173.68 607.005C1173.68 607.354 1173.81 607.691 1174.06 607.943L1177.11 611L1174.06 614.057C1173.81 614.307 1173.67 614.647 1173.67 615C1173.67 615.354 1173.81 615.693 1174.06 615.943Z" fill="#FF5353"/>
<rect x="834" y="576" width="102" height="102" rx="20" fill="#C4C4C4"/>
<path d="M960.138 586.852H953.794V605H960.138C965.936 605 969.706 601.438 969.706 595.952C969.706 590.44 965.936 586.852 960.138 586.852ZM957.434 601.906V589.92H960.008C963.83 589.92 965.988 592.182 965.988 595.952C965.988 599.722 963.83 601.906 960.008 601.906H957.434ZM971.495 597.746C971.495 602.244 974.407 605.234 978.047 605.234C980.335 605.234 981.973 604.142 982.831 602.894V605H986.497V590.596H982.831V592.65C981.973 591.454 980.387 590.362 978.073 590.362C974.407 590.362 971.495 593.248 971.495 597.746ZM982.831 597.798C982.831 600.528 981.011 602.036 979.009 602.036C977.059 602.036 975.213 600.476 975.213 597.746C975.213 595.016 977.059 593.56 979.009 593.56C981.011 593.56 982.831 595.068 982.831 597.798ZM988.518 590.596L993.822 605H998.242L1003.57 590.596H999.698L996.058 601.646L992.418 590.596H988.518ZM1005.62 605H1009.26V590.596H1005.62V605ZM1007.46 588.88C1008.74 588.88 1009.7 587.944 1009.7 586.748C1009.7 585.552 1008.74 584.616 1007.46 584.616C1006.16 584.616 1005.23 585.552 1005.23 586.748C1005.23 587.944 1006.16 588.88 1007.46 588.88ZM1011.92 597.746C1011.92 602.244 1014.83 605.234 1018.49 605.234C1020.76 605.234 1022.37 604.194 1023.23 602.868V605H1026.92V585.76H1023.23V592.598C1022.24 591.246 1020.42 590.362 1018.52 590.362C1014.83 590.362 1011.92 593.248 1011.92 597.746ZM1023.25 597.798C1023.25 600.528 1021.43 602.036 1019.43 602.036C1017.48 602.036 1015.63 600.476 1015.63 597.746C1015.63 595.016 1017.48 593.56 1019.43 593.56C1021.43 593.56 1023.25 595.068 1023.25 597.798Z" fill="black"/>
<path d="M961.558 625.292V632.221C961.558 633.441 961.189 634.401 960.452 635.099C959.715 635.797 958.702 636.146 957.413 636.146C956.124 636.146 955.125 635.795 954.417 635.092C953.714 634.389 953.362 633.422 953.362 632.191V625.292H954.607V632.279C954.607 633.173 954.852 633.859 955.34 634.337C955.828 634.816 956.546 635.055 957.493 635.055C958.396 635.055 959.092 634.816 959.581 634.337C960.069 633.854 960.313 633.163 960.313 632.265V625.292H961.558ZM964.4 636V625.292H965.645V636H964.4ZM972.471 625.292L968.479 636H967.264L971.255 625.292H972.471ZM982.183 625.292V632.221C982.183 633.441 981.814 634.401 981.077 635.099C980.34 635.797 979.327 636.146 978.038 636.146C976.749 636.146 975.75 635.795 975.042 635.092C974.339 634.389 973.987 633.422 973.987 632.191V625.292H975.232V632.279C975.232 633.173 975.477 633.859 975.965 634.337C976.453 634.816 977.171 635.055 978.118 635.055C979.021 635.055 979.717 634.816 980.206 634.337C980.694 633.854 980.938 633.163 980.938 632.265V625.292H982.183ZM992.151 636H990.738L987.859 631.291L984.93 636H983.611L987.171 630.404L983.853 625.292H985.23L987.889 629.533L990.569 625.292H991.895L988.577 630.36L992.151 636ZM1006.13 630.543C1006.13 632.311 1005.65 633.664 1004.68 634.601C1003.73 635.534 1002.35 636 1000.54 636H997.579V625.292H1000.86C1002.52 625.292 1003.82 625.753 1004.74 626.676C1005.66 627.599 1006.13 628.888 1006.13 630.543ZM1004.81 630.587C1004.81 629.191 1004.46 628.139 1003.75 627.431C1003.05 626.723 1002.01 626.369 1000.63 626.369H998.824V634.923H1000.34C1001.82 634.923 1002.94 634.56 1003.69 633.832C1004.43 633.1 1004.81 632.018 1004.81 630.587ZM1011.73 636.146C1010.54 636.146 1009.6 635.785 1008.92 635.062C1008.23 634.34 1007.89 633.336 1007.89 632.052C1007.89 630.758 1008.21 629.73 1008.84 628.969C1009.48 628.207 1010.34 627.826 1011.41 627.826C1012.42 627.826 1013.22 628.158 1013.8 628.822C1014.39 629.481 1014.68 630.353 1014.68 631.437V632.206H1009.15C1009.18 633.148 1009.41 633.864 1009.86 634.352C1010.32 634.84 1010.95 635.084 1011.77 635.084C1012.64 635.084 1013.49 634.904 1014.34 634.542V635.626C1013.91 635.812 1013.5 635.944 1013.11 636.022C1012.73 636.105 1012.27 636.146 1011.73 636.146ZM1011.4 628.844C1010.75 628.844 1010.24 629.054 1009.85 629.474C1009.47 629.894 1009.25 630.475 1009.18 631.217H1013.38C1013.38 630.451 1013.21 629.865 1012.86 629.459C1012.52 629.049 1012.03 628.844 1011.4 628.844ZM1021.94 633.81C1021.94 634.557 1021.66 635.133 1021.1 635.539C1020.55 635.944 1019.77 636.146 1018.76 636.146C1017.7 636.146 1016.87 635.978 1016.27 635.641V634.513C1016.66 634.708 1017.07 634.862 1017.51 634.975C1017.95 635.087 1018.38 635.143 1018.79 635.143C1019.42 635.143 1019.91 635.043 1020.25 634.843C1020.6 634.638 1020.77 634.328 1020.77 633.913C1020.77 633.6 1020.63 633.334 1020.36 633.114C1020.09 632.89 1019.56 632.626 1018.77 632.323C1018.03 632.045 1017.5 631.803 1017.18 631.598C1016.87 631.388 1016.63 631.151 1016.48 630.888C1016.32 630.624 1016.25 630.309 1016.25 629.943C1016.25 629.289 1016.51 628.773 1017.05 628.397C1017.58 628.017 1018.31 627.826 1019.24 627.826C1020.1 627.826 1020.95 628.002 1021.77 628.354L1021.34 629.342C1020.53 629.01 1019.8 628.844 1019.15 628.844C1018.57 628.844 1018.14 628.935 1017.84 629.115C1017.55 629.296 1017.41 629.545 1017.41 629.862C1017.41 630.077 1017.46 630.26 1017.57 630.412C1017.68 630.563 1017.86 630.707 1018.1 630.844C1018.35 630.98 1018.81 631.178 1019.51 631.437C1020.46 631.784 1021.1 632.133 1021.43 632.484C1021.77 632.836 1021.94 633.278 1021.94 633.81ZM1025.14 636H1023.92V627.973H1025.14V636ZM1023.82 625.797C1023.82 625.519 1023.89 625.316 1024.03 625.189C1024.16 625.058 1024.33 624.992 1024.54 624.992C1024.73 624.992 1024.9 625.058 1025.04 625.189C1025.19 625.321 1025.26 625.524 1025.26 625.797C1025.26 626.071 1025.19 626.276 1025.04 626.413C1024.9 626.544 1024.73 626.61 1024.54 626.61C1024.33 626.61 1024.16 626.544 1024.03 626.413C1023.89 626.276 1023.82 626.071 1023.82 625.797ZM1034.29 627.973V628.742L1032.8 628.917C1032.94 629.088 1033.06 629.313 1033.17 629.591C1033.27 629.865 1033.33 630.175 1033.33 630.521C1033.33 631.308 1033.06 631.935 1032.52 632.404C1031.99 632.873 1031.25 633.107 1030.31 633.107C1030.07 633.107 1029.85 633.087 1029.64 633.048C1029.12 633.322 1028.86 633.666 1028.86 634.081C1028.86 634.301 1028.95 634.464 1029.13 634.572C1029.31 634.674 1029.62 634.726 1030.06 634.726H1031.48C1032.35 634.726 1033.02 634.909 1033.48 635.275C1033.95 635.641 1034.19 636.173 1034.19 636.872C1034.19 637.76 1033.83 638.437 1033.12 638.9C1032.4 639.369 1031.36 639.604 1030 639.604C1028.95 639.604 1028.14 639.408 1027.56 639.018C1027 638.627 1026.71 638.075 1026.71 637.362C1026.71 636.874 1026.87 636.452 1027.18 636.095C1027.5 635.739 1027.94 635.497 1028.5 635.37C1028.3 635.277 1028.12 635.133 1027.98 634.938C1027.84 634.743 1027.78 634.516 1027.78 634.257C1027.78 633.964 1027.85 633.708 1028.01 633.488C1028.17 633.268 1028.41 633.056 1028.75 632.851C1028.34 632.68 1028 632.389 1027.73 631.979C1027.47 631.569 1027.34 631.1 1027.34 630.573C1027.34 629.694 1027.61 629.018 1028.14 628.544C1028.66 628.065 1029.41 627.826 1030.38 627.826C1030.8 627.826 1031.17 627.875 1031.51 627.973H1034.29ZM1027.89 637.348C1027.89 637.782 1028.07 638.112 1028.44 638.336C1028.8 638.561 1029.33 638.673 1030.01 638.673C1031.03 638.673 1031.79 638.52 1032.27 638.212C1032.77 637.909 1033.01 637.497 1033.01 636.974C1033.01 636.54 1032.88 636.237 1032.61 636.066C1032.34 635.9 1031.84 635.817 1031.09 635.817H1029.64C1029.08 635.817 1028.66 635.949 1028.35 636.212C1028.04 636.476 1027.89 636.854 1027.89 637.348ZM1028.55 630.543C1028.55 631.105 1028.7 631.53 1029.02 631.818C1029.34 632.106 1029.78 632.25 1030.35 632.25C1031.53 632.25 1032.13 631.674 1032.13 630.521C1032.13 629.315 1031.53 628.712 1030.33 628.712C1029.75 628.712 1029.31 628.866 1029.01 629.174C1028.7 629.481 1028.55 629.938 1028.55 630.543ZM1041.43 636V630.807C1041.43 630.153 1041.28 629.665 1040.98 629.342C1040.68 629.02 1040.22 628.859 1039.58 628.859C1038.74 628.859 1038.13 629.086 1037.74 629.54C1037.35 629.994 1037.15 630.744 1037.15 631.789V636H1035.94V627.973H1036.92L1037.12 629.071H1037.18C1037.43 628.676 1037.78 628.371 1038.23 628.156C1038.68 627.936 1039.18 627.826 1039.73 627.826C1040.7 627.826 1041.42 628.061 1041.91 628.529C1042.4 628.993 1042.64 629.738 1042.64 630.763V636H1041.43ZM1048.54 636.146C1047.35 636.146 1046.42 635.785 1045.73 635.062C1045.04 634.34 1044.7 633.336 1044.7 632.052C1044.7 630.758 1045.02 629.73 1045.65 628.969C1046.29 628.207 1047.15 627.826 1048.23 627.826C1049.23 627.826 1050.03 628.158 1050.61 628.822C1051.2 629.481 1051.49 630.353 1051.49 631.437V632.206H1045.96C1045.99 633.148 1046.22 633.864 1046.67 634.352C1047.13 634.84 1047.76 635.084 1048.58 635.084C1049.45 635.084 1050.3 634.904 1051.15 634.542V635.626C1050.72 635.812 1050.31 635.944 1049.92 636.022C1049.54 636.105 1049.08 636.146 1048.54 636.146ZM1048.21 628.844C1047.57 628.844 1047.05 629.054 1046.67 629.474C1046.28 629.894 1046.06 630.475 1045.99 631.217H1050.19C1050.19 630.451 1050.02 629.865 1049.68 629.459C1049.33 629.049 1048.85 628.844 1048.21 628.844ZM1057.23 627.826C1057.59 627.826 1057.91 627.855 1058.19 627.914L1058.03 629.042C1057.69 628.969 1057.4 628.932 1057.15 628.932C1056.5 628.932 1055.94 629.196 1055.48 629.723C1055.02 630.25 1054.79 630.907 1054.79 631.693V636H1053.57V627.973H1054.58L1054.71 629.459H1054.77C1055.07 628.937 1055.43 628.534 1055.85 628.251C1056.27 627.968 1056.73 627.826 1057.23 627.826Z" fill="black"/>
<defs>
<filter id="filter0_d_9_25" x="1520" y="268" width="282" height="279" filterUnits="userSpaceOnUse" color-interpolation-filters="sRGB">
<feFlood flood-opacity="0" result="BackgroundImageFix"/>
<feColorMatrix in="SourceAlpha" type="matrix" values="0 0 0 0 0 0 0 0 0 0 0 0 0 0 0 0 0 0 127 0" result="hardAlpha"/>
<feOffset dy="11"/>
<feGaussianBlur stdDeviation="19.5"/>
<feColorMatrix type="matrix" values="0 0 0 0 0 0 0 0 0 0 0 0 0 0 0 0 0 0 0.07 0"/>
<feBlend mode="normal" in2="BackgroundImageFix" result="effect1_dropShadow_9_25"/>
<feBlend mode="normal" in="SourceGraphic" in2="effect1_dropShadow_9_25" result="shape"/>
</filter>
<filter id="filter1_d_9_25" x="1379" y="69" width="156" height="166" filterUnits="userSpaceOnUse" color-interpolation-filters="sRGB">
<feFlood flood-opacity="0" result="BackgroundImageFix"/>
<feColorMatrix in="SourceAlpha" type="matrix" values="0 0 0 0 0 0 0 0 0 0 0 0 0 0 0 0 0 0 127 0" result="hardAlpha"/>
<feOffset dy="19"/>
<feGaussianBlur stdDeviation="18.5"/>
<feColorMatrix type="matrix" values="0 0 0 0 0.243137 0 0 0 0 0.207843 0 0 0 0 0.470588 0 0 0 0.03 0"/>
<feBlend mode="normal" in2="BackgroundImageFix" result="effect1_dropShadow_9_25"/>
<feBlend mode="normal" in="SourceGraphic" in2="effect1_dropShadow_9_25" result="shape"/>
</filter>
<filter id="filter2_bd_9_25" x="769" y="522" width="494" height="232" filterUnits="userSpaceOnUse" color-interpolation-filters="sRGB">
<feFlood flood-opacity="0" result="BackgroundImageFix"/>
<feGaussianBlur in="BackgroundImageFix" stdDeviation="5.5"/>
<feComposite in2="SourceAlpha" operator="in" result="effect1_backgroundBlur_9_25"/>
<feColorMatrix in="SourceAlpha" type="matrix" values="0 0 0 0 0 0 0 0 0 0 0 0 0 0 0 0 0 0 127 0" result="hardAlpha"/>
<feOffset dy="11"/>
<feGaussianBlur stdDeviation="19.5"/>
<feColorMatrix type="matrix" values="0 0 0 0 0 0 0 0 0 0 0 0 0 0 0 0 0 0 0.07 0"/>
<feBlend mode="normal" in2="effect1_backgroundBlur_9_25" result="effect2_dropShadow_9_25"/>
<feBlend mode="normal" in="SourceGraphic" in2="effect2_dropShadow_9_25" result="shape"/>
</filter>
<linearGradient id="paint0_linear_9_25" x1="1601.5" y1="404.946" x2="1601.5" y2="467" gradientUnits="userSpaceOnUse">
<stop stop-color="#FFC188"/>
<stop offset="1" stop-color="#FA7C61"/>
</linearGradient>
<linearGradient id="paint1_linear_9_25" x1="1631.5" y1="436.142" x2="1631.5" y2="466.854" gradientUnits="userSpaceOnUse">
<stop stop-color="#FFC188"/>
<stop offset="1" stop-color="#FA7C61"/>
</linearGradient>
<linearGradient id="paint2_linear_9_25" x1="1661.5" y1="409.665" x2="1661.5" y2="466.854" gradientUnits="userSpaceOnUse">
<stop stop-color="#FFC188"/>
<stop offset="1" stop-color="#FA7C61"/>
</linearGradient>
<linearGradient id="paint3_linear_9_25" x1="1691.5" y1="378.953" x2="1691.5" y2="466.854" gradientUnits="userSpaceOnUse">
<stop stop-color="#FFC188"/>
<stop offset="1" stop-color="#FA7C61"/>
</linearGradient>
<linearGradient id="paint4_linear_9_25" x1="1721.5" y1="345.063" x2="1721.5" y2="466.854" gradientUnits="userSpaceOnUse">
<stop stop-color="#FFC188"/>
<stop offset="1" stop-color="#FA7C61"/>
</linearGradient>
<clipPath id="clip0_9_25">
<rect width="48" height="48" fill="white" transform="translate(1433.39 104.611)"/>
</clipPath>
<clipPath id="clip1_9_25">
<rect width="24" height="24" fill="white" transform="translate(952 655)"/>
</clipPath>
<clipPath id="clip2_9_25">
<rect width="24" height="24" fill="white" transform="translate(985 655)"/>
</clipPath>
<clipPath id="clip3_9_25">
<rect width="24" height="24" fill="white" transform="translate(1018 655)"/>
</clipPath>
<clipPath id="clip4_9_25">
<rect width="24" height="24" fill="white" transform="translate(1051 655)"/>
</clipPath>
<clipPath id="clip5_9_25">
<rect width="24" height="24" fill="white" transform="translate(1084 655)"/>
</clipPath>
</defs>
</svg>
