<svg width="923" height="717" viewBox="0 0 923 717" fill="none" xmlns="http://www.w3.org/2000/svg">
<circle cx="167.434" cy="54.794" r="2.43407" transform="rotate(-90 167.434 54.794)" fill="#969696"/>
<circle cx="167.434" cy="37.3406" r="2.43407" transform="rotate(-90 167.434 37.3406)" fill="#969696"/>
<circle cx="167.434" cy="19.8872" r="2.43407" transform="rotate(-90 167.434 19.8872)" fill="#969696"/>
<circle cx="167.434" cy="2.4341" r="2.43407" transform="rotate(-90 167.434 2.4341)" fill="#969696"/>
<circle cx="184.887" cy="54.794" r="2.43407" transform="rotate(-90 184.887 54.794)" fill="#969696"/>
<circle cx="184.887" cy="37.3406" r="2.43407" transform="rotate(-90 184.887 37.3406)" fill="#969696"/>
<circle cx="184.887" cy="19.8872" r="2.43407" transform="rotate(-90 184.887 19.8872)" fill="#969696"/>
<circle cx="184.887" cy="2.4341" r="2.43407" transform="rotate(-90 184.887 2.4341)" fill="#969696"/>
<circle cx="202.341" cy="54.794" r="2.43407" transform="rotate(-90 202.341 54.794)" fill="#969696"/>
<circle cx="202.341" cy="37.3406" r="2.43407" transform="rotate(-90 202.341 37.3406)" fill="#969696"/>
<circle cx="202.341" cy="19.8872" r="2.43407" transform="rotate(-90 202.341 19.8872)" fill="#969696"/>
<circle cx="202.341" cy="2.4341" r="2.43407" transform="rotate(-90 202.341 2.4341)" fill="#969696"/>
<circle cx="219.794" cy="54.794" r="2.43407" transform="rotate(-90 219.794 54.794)" fill="#969696"/>
<circle cx="219.794" cy="37.3406" r="2.43407" transform="rotate(-90 219.794 37.3406)" fill="#969696"/>
<circle cx="219.794" cy="19.8872" r="2.43407" transform="rotate(-90 219.794 19.8872)" fill="#969696"/>
<circle cx="219.794" cy="2.4341" r="2.43407" transform="rotate(-90 219.794 2.4341)" fill="#969696"/>
<circle cx="237.248" cy="54.794" r="2.43407" transform="rotate(-90 237.248 54.794)" fill="#969696"/>
<circle cx="237.248" cy="37.3406" r="2.43407" transform="rotate(-90 237.248 37.3406)" fill="#969696"/>
<circle cx="237.248" cy="19.8872" r="2.43407" transform="rotate(-90 237.248 19.8872)" fill="#969696"/>
<circle cx="237.248" cy="2.4341" r="2.43407" transform="rotate(-90 237.248 2.4341)" fill="#969696"/>
<rect x="36" y="57" width="753" height="660" rx="40" fill="#C4C4C4"/>
<path d="M2 596L15.744 583.736C18.6614 581.133 23.1457 581.424 25.7017 584.383L30.3669 589.783C33.1839 593.044 38.2501 593.01 41.0227 589.711L44.878 585.125C47.6031 581.882 52.5608 581.784 55.4124 584.916L59.9639 589.914C62.8687 593.105 67.9399 592.933 70.6223 589.554L79 579" stroke="#5F4BDB" stroke-width="5"/>
<path d="M2 618L15.744 605.736C18.6614 603.133 23.1457 603.424 25.7017 606.383L30.3669 611.783C33.1839 615.044 38.2501 615.01 41.0227 611.711L44.878 607.125C47.6031 603.882 52.5608 603.784 55.4124 606.916L59.9639 611.914C62.8687 615.105 67.9399 614.933 70.6223 611.554L79 601" stroke="#5F4BDB" stroke-width="5"/>
<g filter="url(#filter0_d_51_13)">
<rect x="680" y="153" width="204" height="201" rx="17" fill="white"/>
</g>
<rect x="712.25" y="180.25" width="0.5" height="146.5" stroke="#C4C4C4" stroke-width="0.5" stroke-dasharray="4 8"/>
<rect x="740.25" y="180.25" width="0.5" height="146.5" stroke="#C4C4C4" stroke-width="0.5" stroke-dasharray="4 8"/>
<rect x="768.25" y="180.25" width="0.5" height="146.5" stroke="#C4C4C4" stroke-width="0.5" stroke-dasharray="4 8"/>
<rect x="796.25" y="180.25" width="0.5" height="146.5" stroke="#C4C4C4" stroke-width="0.5" stroke-dasharray="4 8"/>
<rect x="824.25" y="180.25" width="0.5" height="146.5" stroke="#C4C4C4" stroke-width="0.5" stroke-dasharray="4 8"/>
<rect x="852.25" y="180.25" width="0.5" height="146.5" stroke="#C4C4C4" stroke-width="0.5" stroke-dasharray="4 8"/>
<path d="M712 284.855L714.498 292.882C717.75 303.333 724.841 302.04 727.292 290.55L736.704 246.423C738.474 238.126 742.222 232.841 746.336 232.841H747.859C750.224 232.841 752.522 234.597 754.392 237.832L761.586 250.28L772.367 268.59L778.415 278.232C782.515 284.769 788.103 284.008 791.818 276.407L807.181 244.973C810.691 237.791 815.907 236.672 819.964 242.231L824.874 248.957C829.334 255.068 835.119 253.051 838.534 244.196L843.13 232.279C846.617 223.238 852.559 221.351 857.035 227.862L864 237.994" stroke="#44B563" stroke-width="6" stroke-linecap="round"/>
<g filter="url(#filter1_d_51_13)">
<circle cx="817.5" cy="240.5" r="12.5" fill="#F8A94C"/>
<circle cx="817.5" cy="240.5" r="10.5" stroke="white" stroke-width="4"/>
</g>
<rect width="66" height="66" rx="33" transform="matrix(1 0 0 -1 380 420)" fill="white"/>
<rect x="1" y="-1" width="88" height="88" rx="44" transform="matrix(1 0 0 -1 368 430)" stroke="#658E75" stroke-opacity="0.17" stroke-width="2"/>
<path d="M407.96 387.048L407.96 397.459C407.96 399.134 410.237 399.972 411.569 398.788L423.282 388.376C424.107 387.642 424.107 386.453 423.282 385.719L411.569 375.307C410.237 374.123 407.96 374.962 407.96 376.636L407.96 387.048Z" fill="#363848"/>
<defs>
<filter id="filter0_d_51_13" x="641" y="125" width="282" height="279" filterUnits="userSpaceOnUse" color-interpolation-filters="sRGB">
<feFlood flood-opacity="0" result="BackgroundImageFix"/>
<feColorMatrix in="SourceAlpha" type="matrix" values="0 0 0 0 0 0 0 0 0 0 0 0 0 0 0 0 0 0 127 0" result="hardAlpha"/>
<feOffset dy="11"/>
<feGaussianBlur stdDeviation="19.5"/>
<feColorMatrix type="matrix" values="0 0 0 0 0 0 0 0 0 0 0 0 0 0 0 0 0 0 0.07 0"/>
<feBlend mode="normal" in2="BackgroundImageFix" result="effect1_dropShadow_51_13"/>
<feBlend mode="normal" in="SourceGraphic" in2="effect1_dropShadow_51_13" result="shape"/>
</filter>
<filter id="filter1_d_51_13" x="776" y="218" width="83" height="83" filterUnits="userSpaceOnUse" color-interpolation-filters="sRGB">
<feFlood flood-opacity="0" result="BackgroundImageFix"/>
<feColorMatrix in="SourceAlpha" type="matrix" values="0 0 0 0 0 0 0 0 0 0 0 0 0 0 0 0 0 0 127 0" result="hardAlpha"/>
<feOffset dy="19"/>
<feGaussianBlur stdDeviation="14.5"/>
<feColorMatrix type="matrix" values="0 0 0 0 0.243137 0 0 0 0 0.207843 0 0 0 0 0.470588 0 0 0 0.14 0"/>
<feBlend mode="normal" in2="BackgroundImageFix" result="effect1_dropShadow_51_13"/>
<feBlend mode="normal" in="SourceGraphic" in2="effect1_dropShadow_51_13" result="shape"/>
</filter>
</defs>
</svg>
