<svg width="33" height="32" viewBox="0 0 33 32" fill="none" xmlns="http://www.w3.org/2000/svg">
<path d="M16.3268 1.33313C13.426 1.33313 10.5904 2.19331 8.17847 3.80491C5.76655 5.4165 3.88668 7.70712 2.7766 10.3871C1.66651 13.0671 1.37606 16.0161 1.94198 18.8611C2.5079 21.7062 3.90476 24.3195 5.95593 26.3707C8.0071 28.4219 10.6205 29.8187 13.4655 30.3846C16.3106 30.9506 19.2595 30.6601 21.9395 29.55C24.6195 28.4399 26.9101 26.5601 28.5217 24.1482C30.1333 21.7362 30.9935 18.9006 30.9935 15.9998C30.9889 12.1114 29.4422 8.3835 26.6927 5.63396C23.9431 2.88442 20.2153 1.33772 16.3268 1.33313ZM16.3268 27.9998C13.9535 27.9998 11.6334 27.296 9.65999 25.9774C7.6866 24.6589 6.14853 22.7847 5.24028 20.592C4.33202 18.3993 4.09438 15.9865 4.55741 13.6587C5.02043 11.3309 6.16332 9.19275 7.84155 7.51451C9.51978 5.83629 11.658 4.6934 13.9857 4.23037C16.3135 3.76735 18.7263 4.00499 20.919 4.91324C23.1117 5.82149 24.9859 7.35956 26.3045 9.33295C27.623 11.3063 28.3268 13.6264 28.3268 15.9998C28.3233 19.1813 27.0579 22.2315 24.8082 24.4812C22.5585 26.7309 19.5083 27.9963 16.3268 27.9998Z" fill="#FF5353"/>
<path d="M22.0929 11.684L15.0342 18.1547L11.9369 15.0573C11.8139 14.93 11.6668 14.8284 11.5041 14.7585C11.3414 14.6887 11.1665 14.6519 10.9894 14.6503C10.8124 14.6488 10.6368 14.6825 10.473 14.7496C10.3091 14.8166 10.1602 14.9156 10.0351 15.0408C9.90986 15.166 9.81086 15.3149 9.74382 15.4787C9.67678 15.6426 9.64304 15.8182 9.64458 15.9952C9.64612 16.1723 9.6829 16.3472 9.75278 16.5099C9.82266 16.6726 9.92424 16.8197 10.0516 16.9427L14.0516 20.9427C14.2946 21.1857 14.622 21.3255 14.9655 21.333C15.3091 21.3404 15.6423 21.2149 15.8956 20.9827L23.8956 13.6494C24.1562 13.4103 24.3112 13.0775 24.3264 12.7242C24.3417 12.3709 24.2159 12.026 23.9769 11.7654C23.7379 11.5047 23.4051 11.3497 23.0517 11.3345C22.6984 11.3192 22.3535 11.445 22.0929 11.684Z" fill="#FF5353"/>
</svg>
