<svg width="32" height="32" viewBox="0 0 32 32" fill="none" xmlns="http://www.w3.org/2000/svg">
<path d="M16.0002 1.33313C13.0994 1.33313 10.2637 2.19331 7.85181 3.80491C5.43989 5.4165 3.56002 7.70712 2.44994 10.3871C1.33985 13.0671 1.0494 16.0161 1.61532 18.8611C2.18124 21.7062 3.5781 24.3195 5.62927 26.3707C7.68044 28.4219 10.2938 29.8187 13.1388 30.3846C15.9839 30.9506 18.9329 30.6601 21.6129 29.55C24.2928 28.4399 26.5835 26.5601 28.1951 24.1482C29.8067 21.7362 30.6668 18.9006 30.6668 15.9998C30.6623 12.1114 29.1155 8.3835 26.366 5.63396C23.6165 2.88442 19.8886 1.33772 16.0002 1.33313ZM16.0002 27.9998C13.6268 27.9998 11.3067 27.296 9.33333 25.9774C7.35994 24.6589 5.82187 22.7847 4.91361 20.592C4.00536 18.3993 3.76772 15.9865 4.23075 13.6587C4.69377 11.3309 5.83666 9.19275 7.51489 7.51451C9.19312 5.83629 11.3313 4.6934 13.6591 4.23037C15.9869 3.76735 18.3997 4.00499 20.5924 4.91324C22.7851 5.82149 24.6592 7.35956 25.9778 9.33295C27.2964 11.3063 28.0002 13.6264 28.0002 15.9998C27.9966 19.1813 26.7312 22.2315 24.4816 24.4812C22.2319 26.7309 19.1817 27.9963 16.0002 27.9998Z" fill="#30C736"/>
<path d="M21.7654 11.684L14.7067 18.1547L11.6094 15.0573C11.4864 14.93 11.3393 14.8284 11.1766 14.7585C11.0139 14.6887 10.839 14.6519 10.6619 14.6503C10.4849 14.6488 10.3093 14.6825 10.1455 14.7496C9.9816 14.8166 9.83273 14.9156 9.70754 15.0408C9.58235 15.166 9.48335 15.3149 9.4163 15.4787C9.34926 15.6426 9.31553 15.8182 9.31707 15.9952C9.31861 16.1723 9.35539 16.3472 9.42527 16.5099C9.49514 16.6726 9.59672 16.8197 9.72407 16.9427L13.7241 20.9427C13.967 21.1857 14.2945 21.3255 14.638 21.333C14.9816 21.3404 15.3148 21.2149 15.5681 20.9827L23.5681 13.6494C23.8287 13.4103 23.9837 13.0775 23.9989 12.7242C24.0142 12.3709 23.8884 12.026 23.6494 11.7654C23.4103 11.5047 23.0775 11.3497 22.7242 11.3345C22.3709 11.3192 22.026 11.445 21.7654 11.684Z" fill="#30C736"/>
</svg>
