<svg width="24" height="24" viewBox="0 0 24 24" fill="none" xmlns="http://www.w3.org/2000/svg">
<path d="M2.99976 6H13.9998C13.9998 6.53043 14.2105 7.03914 14.5855 7.41421C14.9606 7.78929 15.4693 8 15.9998 8H17.9998C18.5302 8 19.0389 7.78929 19.414 7.41421C19.789 7.03914 19.9998 6.53043 19.9998 6H20.9998C21.265 6 21.5193 5.89464 21.7069 5.70711C21.8944 5.51957 21.9998 5.26522 21.9998 5C21.9998 4.73478 21.8944 4.48043 21.7069 4.29289C21.5193 4.10536 21.265 4 20.9998 4H19.9998C19.9998 3.46957 19.789 2.96086 19.414 2.58579C19.0389 2.21071 18.5302 2 17.9998 2H15.9998C15.4693 2 14.9606 2.21071 14.5855 2.58579C14.2105 2.96086 13.9998 3.46957 13.9998 4H2.99976C2.73454 4 2.48019 4.10536 2.29265 4.29289C2.10511 4.48043 1.99976 4.73478 1.99976 5C1.99976 5.26522 2.10511 5.51957 2.29265 5.70711C2.48019 5.89464 2.73454 6 2.99976 6ZM15.9998 4H17.9998V5V6H15.9998V4ZM20.9998 11H11.9998C11.9998 10.4696 11.789 9.96086 11.414 9.58579C11.0389 9.21071 10.5302 9 9.99976 9H7.99976C7.46932 9 6.96062 9.21071 6.58554 9.58579C6.21047 9.96086 5.99976 10.4696 5.99976 11H2.99976C2.73454 11 2.48019 11.1054 2.29265 11.2929C2.10511 11.4804 1.99976 11.7348 1.99976 12C1.99976 12.2652 2.10511 12.5196 2.29265 12.7071C2.48019 12.8946 2.73454 13 2.99976 13H5.99976C5.99976 13.5304 6.21047 14.0391 6.58554 14.4142C6.96062 14.7893 7.46932 15 7.99976 15H9.99976C10.5302 15 11.0389 14.7893 11.414 14.4142C11.789 14.0391 11.9998 13.5304 11.9998 13H20.9998C21.265 13 21.5193 12.8946 21.7069 12.7071C21.8944 12.5196 21.9998 12.2652 21.9998 12C21.9998 11.7348 21.8944 11.4804 21.7069 11.2929C21.5193 11.1054 21.265 11 20.9998 11ZM7.99976 13V11H9.99976V12V13H7.99976ZM20.9998 18H17.9998C17.9998 17.4696 17.789 16.9609 17.414 16.5858C17.0389 16.2107 16.5302 16 15.9998 16H13.9998C13.4693 16 12.9606 16.2107 12.5855 16.5858C12.2105 16.9609 11.9998 17.4696 11.9998 18H2.99976C2.73454 18 2.48019 18.1054 2.29265 18.2929C2.10511 18.4804 1.99976 18.7348 1.99976 19C1.99976 19.2652 2.10511 19.5196 2.29265 19.7071C2.48019 19.8946 2.73454 20 2.99976 20H11.9998C11.9998 20.5304 12.2105 21.0391 12.5855 21.4142C12.9606 21.7893 13.4693 22 13.9998 22H15.9998C16.5302 22 17.0389 21.7893 17.414 21.4142C17.789 21.0391 17.9998 20.5304 17.9998 20H20.9998C21.265 20 21.5193 19.8946 21.7069 19.7071C21.8944 19.5196 21.9998 19.2652 21.9998 19C21.9998 18.7348 21.8944 18.4804 21.7069 18.2929C21.5193 18.1054 21.265 18 20.9998 18ZM13.9998 20V18H15.9998V19V20H13.9998Z" fill="#5F4BDB"/>
</svg>
