<svg width="54" height="54" viewBox="0 0 54 54" fill="none" xmlns="http://www.w3.org/2000/svg">
<rect width="54" height="54" rx="27" fill="#8653C7"/>
<path d="M26.2687 25.2681C25.5882 25.9486 25.5882 27.0514 26.2687 27.7313C26.9486 28.4118 28.052 28.4118 28.7319 27.7313C29.4123 27.0509 29.4123 25.948 28.7319 25.2681C28.0514 24.5882 26.9486 24.5882 26.2687 25.2681ZM27.5 13C20.044 13 14 19.044 14 26.5C14 33.956 20.044 40 27.5 40C34.956 40 41 33.956 41 26.5C41 19.044 34.956 13 27.5 13ZM34.3665 21.0592L30.7754 28.9169C30.6017 29.2969 30.2969 29.6017 29.9169 29.7754L22.0597 33.3665C21.1534 33.7807 20.2193 32.8466 20.6335 31.9403L24.2252 24.0825C24.3989 23.7025 24.7036 23.3978 25.0836 23.2241L32.9408 19.633C33.8472 19.2193 34.7807 20.1528 34.3665 21.0592Z" fill="white"/>
</svg>
