<svg width="54" height="54" viewBox="0 0 54 54" fill="none" xmlns="http://www.w3.org/2000/svg">
<rect width="54" height="54" rx="27" fill="#2BC155"/>
<g clip-path="url(#clip0_45_5)">
<path d="M27.0001 19.8401C23.5987 19.8401 20.6536 22.2026 19.9157 25.523L17.4992 36.3971C17.4815 36.4769 17.4725 36.5584 17.4725 36.6401C17.4725 37.2587 17.974 37.7601 18.5925 37.7601H35.4077C35.4894 37.7601 35.5709 37.7512 35.6507 37.7334C36.2545 37.5992 36.6352 37.001 36.501 36.3971L34.0846 25.523C33.3467 22.2026 30.4016 19.8401 27.0001 19.8401ZM27.0001 17.6001C31.4515 17.6001 35.3056 20.6918 36.2712 25.0371L38.6877 35.9112C39.0902 37.7227 37.9481 39.5175 36.1366 39.9201C35.8973 39.9733 35.6529 40.0001 35.4077 40.0001H18.5925C16.7369 40.0001 15.2325 38.4958 15.2325 36.6401C15.2325 36.3949 15.2594 36.1505 15.3126 35.9112L17.729 25.0371C18.6947 20.6918 22.5488 17.6001 27.0001 17.6001Z" fill="white"/>
<path d="M29.2402 24.3201C29.8588 24.3201 30.3602 24.8215 30.3602 25.4401C30.3602 26.0586 29.8588 26.5601 29.2402 26.5601H26.4402C26.1309 26.5601 25.8802 26.8108 25.8802 27.1201C25.8802 27.4294 26.1309 27.6801 26.4402 27.6801H27.5602C29.1066 27.6801 30.3602 28.9337 30.3602 30.4801C30.3602 32.0265 29.1066 33.2801 27.5602 33.2801H24.7602C24.1416 33.2801 23.6402 32.7786 23.6402 32.1601C23.6402 31.5415 24.1416 31.0401 24.7602 31.0401H27.5602C27.8695 31.0401 28.1202 30.7894 28.1202 30.4801C28.1202 30.1708 27.8695 29.9201 27.5602 29.9201H26.4402C24.8938 29.9201 23.6402 28.6665 23.6402 27.1201C23.6402 25.5737 24.8938 24.3201 26.4402 24.3201H29.2402Z" fill="white"/>
<path d="M25.8802 23.2001C25.8802 22.5815 26.3817 22.0801 27.0002 22.0801C27.6188 22.0801 28.1203 22.5815 28.1203 23.2001V25.4401C28.1203 26.0587 27.6188 26.5601 27.0002 26.5601C26.3817 26.5601 25.8802 26.0587 25.8802 25.4401V23.2001Z" fill="white"/>
<path d="M28.1203 34.4001C28.1203 35.0187 27.6188 35.5201 27.0002 35.5201C26.3817 35.5201 25.8802 35.0187 25.8802 34.4001V32.1601C25.8802 31.5416 26.3817 31.0401 27.0002 31.0401C27.6188 31.0401 28.1203 31.5416 28.1203 32.1601V34.4001Z" fill="white"/>
<path d="M25.8001 18.3042C26.0298 18.8785 25.7504 19.5303 25.1761 19.76C24.6018 19.9897 23.95 19.7104 23.7203 19.1361L21.4803 13.5361C21.1163 12.6261 22.0141 11.7205 22.9272 12.0767C23.7659 12.4039 24.391 12.5601 24.7602 12.5601C24.8521 12.5601 24.9283 12.5405 25.0946 12.4698C25.1387 12.451 25.1906 12.4281 25.3122 12.3743C25.8915 12.1204 26.3491 12.0001 27.0002 12.0001C27.6497 12.0001 28.1146 12.1208 28.6957 12.3722C28.8432 12.4368 28.9021 12.4624 28.9542 12.4839C29.0978 12.543 29.1669 12.5601 29.2402 12.5601C29.5878 12.5601 30.2185 12.4024 31.0812 12.0736C31.9932 11.7259 32.8825 12.6299 32.5201 13.5361L30.2801 19.1361C30.0503 19.7104 29.3985 19.9897 28.8242 19.76C28.2499 19.5303 27.9705 18.8785 28.2003 18.3042L29.6096 14.7809C29.4808 14.7937 29.3578 14.8001 29.2402 14.8001C28.8314 14.8001 28.4927 14.7163 28.1013 14.5552C28.0241 14.5234 27.9394 14.4864 27.8064 14.4281C27.4822 14.2878 27.2985 14.2401 27.0002 14.2401C26.7048 14.2401 26.5313 14.2857 26.2114 14.4259C26.1015 14.4746 26.0319 14.5054 25.9706 14.5314C25.5512 14.7096 25.2002 14.8001 24.7602 14.8001C24.6419 14.8001 24.5189 14.794 24.3911 14.7818L25.8001 18.3042Z" fill="white"/>
</g>
<defs>
<clipPath id="clip0_45_5">
<rect width="28" height="28" fill="white" transform="translate(13 12)"/>
</clipPath>
</defs>
</svg>
