<svg width="407" height="395" viewBox="0 0 407 395" fill="none" xmlns="http://www.w3.org/2000/svg">
<path d="M38 206C38 106.589 118.589 26 218 26H387C398.046 26 407 34.9543 407 46V215C407 314.411 326.411 395 227 395H218C118.589 395 38 314.411 38 215V206Z" fill="#C4C4C4"/>
<circle cx="3.59456" cy="304.102" r="3.59456" transform="rotate(-90 3.59456 304.102)" fill="#5F4BDB"/>
<circle cx="3.59456" cy="321.618" r="3.59456" transform="rotate(-90 3.59456 321.618)" fill="#5F4BDB"/>
<circle cx="3.59456" cy="339.133" r="3.59456" transform="rotate(-90 3.59456 339.133)" fill="#5F4BDB"/>
<circle cx="3.59456" cy="286.849" r="3.59456" transform="rotate(-90 3.59456 286.849)" fill="#5F4BDB"/>
<circle cx="3.59456" cy="269.595" r="3.59456" transform="rotate(-90 3.59456 269.595)" fill="#5F4BDB"/>
<circle cx="20.8485" cy="304.102" r="3.59456" transform="rotate(-90 20.8485 304.102)" fill="#5F4BDB"/>
<circle cx="20.8485" cy="321.618" r="3.59456" transform="rotate(-90 20.8485 321.618)" fill="#5F4BDB"/>
<circle cx="20.8485" cy="339.133" r="3.59456" transform="rotate(-90 20.8485 339.133)" fill="#5F4BDB"/>
<circle cx="20.8485" cy="286.849" r="3.59456" transform="rotate(-90 20.8485 286.849)" fill="#5F4BDB"/>
<circle cx="20.8485" cy="269.595" r="3.59456" transform="rotate(-90 20.8485 269.595)" fill="#5F4BDB"/>
<circle cx="38.1024" cy="304.102" r="3.59456" transform="rotate(-90 38.1024 304.102)" fill="#5F4BDB"/>
<circle cx="38.1024" cy="321.618" r="3.59456" transform="rotate(-90 38.1024 321.618)" fill="#5F4BDB"/>
<circle cx="38.1024" cy="339.133" r="3.59456" transform="rotate(-90 38.1024 339.133)" fill="#5F4BDB"/>
<circle cx="38.1024" cy="286.849" r="3.59456" transform="rotate(-90 38.1024 286.849)" fill="#5F4BDB"/>
<circle cx="38.1024" cy="269.595" r="3.59456" transform="rotate(-90 38.1024 269.595)" fill="#5F4BDB"/>
<circle cx="55.3563" cy="304.102" r="3.59456" transform="rotate(-90 55.3563 304.102)" fill="#5F4BDB"/>
<circle cx="55.3563" cy="321.618" r="3.59456" transform="rotate(-90 55.3563 321.618)" fill="#5F4BDB"/>
<circle cx="55.3563" cy="339.133" r="3.59456" transform="rotate(-90 55.3563 339.133)" fill="#5F4BDB"/>
<circle cx="55.3563" cy="286.849" r="3.59456" transform="rotate(-90 55.3563 286.849)" fill="#5F4BDB"/>
<circle cx="55.3563" cy="269.595" r="3.59456" transform="rotate(-90 55.3563 269.595)" fill="#5F4BDB"/>
<circle cx="72.6102" cy="304.102" r="3.59456" transform="rotate(-90 72.6102 304.102)" fill="#5F4BDB"/>
<circle cx="72.6102" cy="321.618" r="3.59456" transform="rotate(-90 72.6102 321.618)" fill="#5F4BDB"/>
<circle cx="72.6102" cy="339.133" r="3.59456" transform="rotate(-90 72.6102 339.133)" fill="#5F4BDB"/>
<circle cx="72.6102" cy="286.849" r="3.59456" transform="rotate(-90 72.6102 286.849)" fill="#5F4BDB"/>
<circle cx="72.6102" cy="269.595" r="3.59456" transform="rotate(-90 72.6102 269.595)" fill="#5F4BDB"/>
<path d="M103.312 0V3.88772C97.8295 5.8977 93.5333 9.07136 90.4233 13.4087C87.3132 17.6931 85.7581 22.1627 85.7581 26.8174C85.7581 27.8224 85.9163 28.5629 86.2326 29.0389C86.4434 29.3563 86.6806 29.515 86.9442 29.515C87.2078 29.515 87.6031 29.3298 88.1302 28.9596C89.8171 27.743 91.9519 27.1347 94.5349 27.1347C97.5395 27.1347 100.202 28.3777 102.521 30.8638C104.84 33.2969 106 36.2061 106 39.5913C106 43.1352 104.656 46.256 101.967 48.9536C99.3318 51.6512 96.1163 53 92.3209 53C87.893 53 84.0713 51.1751 80.8558 47.5254C77.6403 43.8757 76.0326 38.983 76.0326 32.8473C76.0326 25.7066 78.2202 19.3064 82.5953 13.6467C86.9705 7.98703 93.876 3.43812 103.312 0ZM65.2791 0V3.88772C59.7969 5.8977 55.5008 9.07136 52.3907 13.4087C49.2806 17.6931 47.7256 22.1627 47.7256 26.8174C47.7256 27.8224 47.8837 28.5629 48.2 29.0389C48.4109 29.3563 48.6481 29.515 48.9116 29.515C49.1752 29.515 49.5705 29.3298 50.0977 28.9596C51.7845 27.743 53.9194 27.1347 56.5023 27.1347C59.507 27.1347 62.169 28.3777 64.4884 30.8638C66.8078 33.2969 67.9674 36.2061 67.9674 39.5913C67.9674 43.1352 66.6233 46.256 63.9349 48.9536C61.2992 51.6512 58.0837 53 54.2884 53C49.8605 53 46.0388 51.1751 42.8233 47.5254C39.6078 43.8757 38 38.983 38 32.8473C38 25.7066 40.1876 19.3064 44.5628 13.6467C48.938 7.98703 55.8434 3.43812 65.2791 0Z" fill="#363848"/>
</svg>
